<svg width="300" height="300" viewBox="0 0 300 300" fill="none" xmlns="http://www.w3.org/2000/svg">
<path d="M241.8 137.16C241.8 137.16 255.552 138.522 262.518 147.048C262.518 147.048 269.886 137.172 283.11 137.376C286.342 133.477 288.399 128.741 289.044 123.718C289.688 118.695 288.892 113.593 286.749 109.005C284.605 104.416 281.203 100.532 276.938 97.8022C272.672 95.0729 267.719 93.6114 262.655 93.5878C257.591 93.5643 252.625 94.9797 248.334 97.6693C244.043 100.359 240.605 104.212 238.419 108.78C236.233 113.348 235.39 118.443 235.988 123.471C236.585 128.5 238.599 133.255 241.794 137.184L241.8 137.16Z" fill="#0860FB"/>
<path opacity="0.5" d="M241.8 137.16C241.8 137.16 255.552 138.522 262.518 147.048C262.518 147.048 269.886 137.172 283.11 137.376C286.342 133.477 288.399 128.741 289.044 123.718C289.688 118.695 288.892 113.593 286.749 109.005C284.605 104.416 281.203 100.532 276.938 97.8022C272.672 95.0729 267.719 93.6114 262.655 93.5878C257.591 93.5643 252.625 94.9797 248.334 97.6693C244.043 100.359 240.605 104.212 238.419 108.78C236.233 113.348 235.39 118.443 235.988 123.471C236.585 128.5 238.599 133.255 241.794 137.184L241.8 137.16Z" fill="white"/>
<path d="M262.056 95.472L261.594 184.596H263.916L262.056 95.472Z" fill="#B8B8B8"/>
<path d="M262.758 144.45C262.758 144.45 267.396 136.092 275.754 133.536C275.754 133.536 266.934 135.63 262.554 142.824L262.758 144.45Z" fill="#B8B8B8"/>
<path d="M262.758 120.774C262.758 120.774 267.396 112.416 275.754 109.86C275.754 109.86 266.934 111.948 262.554 119.148L262.758 120.774Z" fill="#B8B8B8"/>
<path d="M262.758 132.6C262.758 132.6 267.396 124.242 275.754 121.686C275.754 121.686 266.934 123.78 262.554 130.974L262.758 132.6Z" fill="#B8B8B8"/>
<path d="M262.068 126.804C262.068 126.804 257.586 118.452 249.522 115.896C249.522 115.896 258.036 117.984 262.29 125.184L262.068 126.804Z" fill="#B8B8B8"/>
<path d="M262.068 138.414C262.068 138.414 257.586 130.056 249.522 127.506C249.522 127.506 258.036 129.594 262.29 136.788L262.068 138.414Z" fill="#B8B8B8"/>
<path d="M16.7221 137.16C16.7221 137.16 30.4741 138.522 37.4401 147.048C37.4401 147.048 44.8081 137.172 58.0321 137.376C61.2638 133.477 63.3215 128.741 63.9657 123.718C64.6099 118.695 63.8141 113.593 61.6708 109.005C59.5276 104.416 56.1251 100.532 51.8596 97.8022C47.5941 95.0729 42.6411 93.6114 37.5771 93.5878C32.5132 93.5643 27.5468 94.9797 23.2561 97.6693C18.9654 100.359 15.527 104.212 13.3412 108.78C11.1554 113.348 10.3121 118.443 10.9096 123.471C11.5071 128.5 13.5208 133.255 16.7161 137.184L16.7221 137.16Z" fill="#0860FB"/>
<path opacity="0.5" d="M16.7221 137.16C16.7221 137.16 30.4741 138.522 37.4401 147.048C37.4401 147.048 44.8081 137.172 58.0321 137.376C61.2638 133.477 63.3215 128.741 63.9657 123.718C64.6099 118.695 63.8141 113.593 61.6708 109.005C59.5276 104.416 56.1251 100.532 51.8596 97.8022C47.5941 95.0729 42.6411 93.6114 37.5771 93.5878C32.5132 93.5643 27.5468 94.9797 23.2561 97.6693C18.9654 100.359 15.527 104.212 13.3412 108.78C11.1554 113.348 10.3121 118.443 10.9096 123.471C11.5071 128.5 13.5208 133.255 16.7161 137.184L16.7221 137.16Z" fill="white"/>
<path d="M36.99 95.472L36.522 184.596H38.844L36.99 95.472Z" fill="#B8B8B8"/>
<path d="M37.6862 144.45C37.6862 144.45 42.3242 136.092 50.6822 133.536C50.6822 133.536 41.8622 135.63 37.4822 142.824L37.6862 144.45Z" fill="#B8B8B8"/>
<path d="M37.6862 120.774C37.6862 120.774 42.3242 112.416 50.6822 109.86C50.6822 109.86 41.8622 111.948 37.4822 119.148L37.6862 120.774Z" fill="#B8B8B8"/>
<path d="M37.6862 132.6C37.6862 132.6 42.3242 124.242 50.6822 121.686C50.6822 121.686 41.8622 123.78 37.4822 130.974L37.6862 132.6Z" fill="#B8B8B8"/>
<path d="M36.9962 126.804C36.9962 126.804 32.5142 118.452 24.4502 115.896C24.4502 115.896 32.9642 117.984 37.2182 125.184L36.9962 126.804Z" fill="#B8B8B8"/>
<path d="M36.9962 138.414C36.9962 138.414 32.5142 130.056 24.4502 127.506C24.4502 127.506 32.9642 129.594 37.2182 136.788L36.9962 138.414Z" fill="#B8B8B8"/>
<path d="M185.922 145.8C185.922 145.8 197.178 146.91 202.878 153.888C202.878 153.888 208.908 145.806 219.732 145.968C222.376 142.777 224.059 138.9 224.585 134.789C225.111 130.678 224.458 126.503 222.703 122.749C220.949 118.994 218.163 115.816 214.672 113.583C211.181 111.35 207.127 110.155 202.983 110.137C198.839 110.118 194.774 111.277 191.264 113.479C187.753 115.681 184.939 118.835 183.151 122.573C181.363 126.312 180.673 130.481 181.163 134.597C181.652 138.712 183.301 142.603 185.916 145.818L185.922 145.8Z" fill="#0860FB"/>
<path opacity="0.5" d="M185.922 145.8C185.922 145.8 197.178 146.91 202.878 153.888C202.878 153.888 208.908 145.806 219.732 145.968C222.376 142.777 224.059 138.9 224.585 134.789C225.111 130.678 224.458 126.503 222.703 122.749C220.949 118.994 218.163 115.816 214.672 113.583C211.181 111.35 207.127 110.155 202.983 110.137C198.839 110.118 194.774 111.277 191.264 113.479C187.753 115.681 184.939 118.835 183.151 122.573C181.363 126.312 180.673 130.481 181.163 134.597C181.652 138.712 183.301 142.603 185.916 145.818L185.922 145.8Z" fill="white"/>
<path d="M202.506 111.648L202.128 184.596H204.03L202.506 111.648Z" fill="#B8B8B8"/>
<path d="M203.076 151.74C203.076 151.74 206.88 144.9 213.714 142.806C213.714 142.806 206.514 144.516 202.914 150.408L203.076 151.74Z" fill="#B8B8B8"/>
<path d="M203.076 132.36C203.076 132.36 206.88 125.52 213.714 123.432C213.714 123.432 206.514 125.142 202.914 131.028L203.076 132.36Z" fill="#B8B8B8"/>
<path d="M203.076 142.05C203.076 142.05 206.88 135.21 213.714 133.116C213.714 133.116 206.514 134.826 202.914 140.718L203.076 142.05Z" fill="#B8B8B8"/>
<path d="M202.512 137.298C202.512 137.298 198.846 130.458 192.246 128.37C192.246 128.37 199.212 130.08 202.698 135.966L202.512 137.298Z" fill="#B8B8B8"/>
<path d="M202.512 146.796C202.512 146.796 198.846 139.956 192.246 137.868C192.246 137.868 199.212 139.578 202.698 145.47L202.512 146.796Z" fill="#B8B8B8"/>
<path d="M77.0162 145.8C77.0162 145.8 88.2722 146.91 93.9722 153.888C93.9722 153.888 99.9722 145.806 110.826 145.968C113.47 142.777 115.153 138.9 115.679 134.789C116.205 130.678 115.552 126.503 113.797 122.749C112.043 118.994 109.257 115.816 105.766 113.583C102.275 111.35 98.221 110.155 94.0768 110.137C89.9326 110.118 85.8685 111.277 82.3575 113.479C78.8466 115.681 76.0332 118.835 74.245 122.573C72.4569 126.312 71.7674 130.481 72.2569 134.597C72.7465 138.712 74.3949 142.603 77.0102 145.818L77.0162 145.8Z" fill="#0860FB"/>
<path opacity="0.5" d="M77.0162 145.8C77.0162 145.8 88.2722 146.91 93.9722 153.888C93.9722 153.888 99.9722 145.806 110.826 145.968C113.47 142.777 115.153 138.9 115.679 134.789C116.205 130.678 115.552 126.503 113.797 122.749C112.043 118.994 109.257 115.816 105.766 113.583C102.275 111.35 98.221 110.155 94.0768 110.137C89.9326 110.118 85.8685 111.277 82.3575 113.479C78.8466 115.681 76.0332 118.835 74.245 122.573C72.4569 126.312 71.7674 130.481 72.2569 134.597C72.7465 138.712 74.3949 142.603 77.0102 145.818L77.0162 145.8Z" fill="white"/>
<path d="M93.6002 111.648L93.2222 184.596H95.1242L93.6002 111.648Z" fill="#B8B8B8"/>
<path d="M94.2001 151.74C94.2001 151.74 98.0041 144.9 104.838 142.806C104.838 142.806 97.6381 144.516 94.0381 150.408L94.2001 151.74Z" fill="#B8B8B8"/>
<path d="M94.2001 132.36C94.2001 132.36 98.0041 125.52 104.838 123.432C104.838 123.432 97.6381 125.142 94.0381 131.028L94.2001 132.36Z" fill="#B8B8B8"/>
<path d="M94.2001 142.05C94.2001 142.05 98.0041 135.21 104.838 133.116C104.838 133.116 97.6381 134.826 94.0381 140.718L94.2001 142.05Z" fill="#B8B8B8"/>
<path d="M93.6001 137.298C93.6001 137.298 89.9401 130.458 83.3401 128.4C83.3401 128.4 90.3061 130.11 93.7921 135.996L93.6001 137.298Z" fill="#B8B8B8"/>
<path d="M93.6 146.796C93.6 146.796 89.934 139.956 83.334 137.868C83.334 137.868 90.3 139.578 93.786 145.47L93.6 146.796Z" fill="#B8B8B8"/>
<path d="M20.8621 184.914H279.786" stroke="#263238" stroke-width="1.04742" stroke-miterlimit="10"/>
<path opacity="0.3" d="M91.5542 213.87C91.5542 215.67 80.4962 217.104 66.8462 217.104C53.1962 217.104 42.1382 215.658 42.1382 213.87C42.1382 212.082 53.2022 210.636 66.8462 210.636C80.4902 210.636 91.5542 212.088 91.5542 213.87Z" fill="black"/>
<path opacity="0.3" d="M143.28 213.87C143.28 215.67 132.216 217.104 118.572 217.104C104.928 217.104 93.864 215.658 93.864 213.87C93.864 212.082 104.928 210.636 118.572 210.636C132.216 210.636 143.28 212.088 143.28 213.87Z" fill="black"/>
<path opacity="0.3" d="M211.8 213.87C211.8 215.67 200.742 217.104 187.098 217.104C173.454 217.104 162.39 215.658 162.39 213.87C162.39 212.082 173.448 210.636 187.098 210.636C200.748 210.636 211.8 212.088 211.8 213.87Z" fill="black"/>
<path opacity="0.3" d="M269.04 213.87C269.04 215.67 257.976 217.104 244.332 217.104C230.688 217.104 219.6 215.658 219.6 213.87C219.6 212.082 230.664 210.636 244.308 210.636C257.952 210.636 269.04 212.088 269.04 213.87Z" fill="black"/>
<path d="M189.768 119.262C189.768 119.262 188.754 123.462 188.754 124.17C188.753 124.608 188.705 125.044 188.61 125.472C188.61 125.472 186.444 128.07 186.732 128.79C187.082 129.35 187.583 129.799 188.178 130.086C188.178 130.086 189.33 134.286 190.488 134.562C191.677 134.784 192.88 134.928 194.088 134.994L194.52 138.456L200.292 137.592L198.852 132.396L199.452 127.92C199.452 127.92 200.46 126.048 199.452 123.018C198.444 119.988 196.278 119.844 194.832 119.844C193.135 119.737 191.445 119.542 189.768 119.262Z" fill="white" stroke="#263238" stroke-width="1.04742" stroke-linecap="round" stroke-linejoin="round"/>
<path d="M192.366 117.102C192.366 117.102 187.314 116.952 187.458 118.254C187.602 119.556 192.798 121.254 192.798 121.254C192.798 121.254 191.064 122.406 191.928 123.564C192.792 124.722 194.814 125.73 194.814 125.73C194.814 125.73 194.214 128.184 195.108 128.328C196.002 128.472 196.548 127.17 196.692 126.738C196.836 126.306 198.426 126.45 198.858 127.602C199.102 128.201 199.248 128.835 199.29 129.48C199.29 129.48 201.024 124.284 201.312 121.974C201.6 119.664 195.108 117.102 192.366 117.102Z" fill="#263238" stroke="#263238" stroke-width="1.04742" stroke-linecap="round" stroke-linejoin="round"/>
<path d="M195.564 128.4C195.564 128.4 197.31 124.56 198.354 126.45C199.398 128.34 198.954 130.308 197.928 130.518C196.902 130.728 196.044 130.932 196.044 130.932" fill="white"/>
<path d="M195.564 128.4C195.564 128.4 197.31 124.56 198.354 126.45C199.398 128.34 198.954 130.308 197.928 130.518C196.902 130.728 196.044 130.932 196.044 130.932" stroke="#263238" stroke-width="1.04742" stroke-linecap="round" stroke-linejoin="round"/>
<path d="M188.466 168.474C188.184 168.804 183.558 178.722 182.982 182.04C182.406 185.358 178.656 205.134 178.506 205.998C178.356 206.862 170.43 208.596 169.848 208.74C169.266 208.884 170.448 210.474 172.158 210.906C173.868 211.338 178.8 213.36 179.958 212.202C181.116 211.044 182.7 204.552 183.132 203.832C183.564 203.112 191.688 183.972 191.688 183.972C191.688 183.972 195.852 174.786 196.716 173.916C197.58 173.046 195.69 169.2 194.964 168.042C194.238 166.884 190.488 166.164 188.466 168.474Z" fill="#263238" stroke="#263238" stroke-width="1.04742" stroke-linecap="round" stroke-linejoin="round"/>
<path d="M187.602 168.6C187.602 168.6 189.624 178.272 190.632 181.734C191.575 184.642 192.995 187.373 194.832 189.816C195.99 191.406 201.618 205.416 201.618 205.416L202.482 207.582C202.482 207.582 202.194 208.446 200.61 209.598C199.026 210.75 194.544 212.628 195.702 213.066C196.86 213.504 201.474 213.498 203.64 213.354C205.505 213.222 207.253 212.398 208.542 211.044C209.412 210.03 207.102 207.144 207.102 206.568C207.102 205.992 202.05 188.388 201.762 187.518C201.474 186.648 200.028 180.45 200.028 180.45V173.4C200.028 173.4 200.754 172.104 200.754 169.2C200.754 166.296 198.588 165.732 198.588 165.732L186.75 166.89L187.602 168.6Z" fill="#263238" stroke="#263238" stroke-width="1.04742" stroke-linecap="round" stroke-linejoin="round"/>
<path d="M186.6 167.754C186.6 167.754 186.894 170.208 187.758 170.352C188.622 170.496 197.568 172.95 201.468 170.064C201.468 170.064 202.188 167.898 201.756 167.322C201.324 166.746 200.31 167.034 195.12 167.034C189.93 167.034 186.6 167.034 186.6 167.754Z" fill="#0860FB" stroke="#263238" stroke-width="1.04742" stroke-linecap="round" stroke-linejoin="round"/>
<path d="M199.866 135.426C199.866 135.426 194.526 136.146 192.216 138.426C189.906 140.706 187.89 144.924 186.882 148.818C185.874 152.712 185.148 167.004 186.588 167.724C188.028 168.444 200.154 169.17 202.188 168.324C204.222 167.478 202.044 160.674 202.044 158.076C202.044 155.478 204.354 146.676 203.922 141.774C203.49 136.872 199.866 135.426 199.866 135.426Z" fill="#0860FB" stroke="#263238" stroke-width="1.04742" stroke-linecap="round" stroke-linejoin="round"/>
<path d="M180.6 150.426C180.534 144.486 178.11 139.416 174.888 137.226V136.026L166.008 136.116C161.01 136.17 157.008 142.716 157.11 150.696C157.212 158.676 161.31 165.138 166.314 165.096L175.194 165.006V163.806C178.314 161.484 180.63 156.366 180.6 150.426Z" fill="#263238" stroke="#263238" stroke-width="1.04742" stroke-linecap="round" stroke-linejoin="round"/>
<path d="M184.584 150.384C184.518 144.144 182.112 138.816 178.728 136.5V135.222L174.924 135.264C169.668 135.318 165.486 142.176 165.576 150.582C165.666 158.988 169.992 165.756 175.248 165.702L179.052 165.66V164.388C182.358 162 184.65 156.6 184.584 150.384Z" fill="white" stroke="#263238" stroke-width="1.04742" stroke-linecap="round" stroke-linejoin="round"/>
<path d="M188.4 150.342C188.49 158.742 184.302 165.606 179.052 165.66C173.802 165.714 169.452 158.946 169.38 150.546C169.308 142.146 173.478 135.282 178.728 135.222C183.978 135.162 188.298 141.936 188.4 150.342Z" fill="#3A3B3D" stroke="#263238" stroke-width="1.04742" stroke-linecap="round" stroke-linejoin="round"/>
<path d="M186.216 150.084C186.258 154.062 184.272 157.314 181.782 157.344C179.292 157.374 177.24 154.158 177.198 150.144C177.156 146.13 179.142 142.944 181.632 142.884C184.122 142.824 186.174 146.1 186.216 150.084Z" fill="#263238" stroke="#263238" stroke-width="1.04742" stroke-linecap="round" stroke-linejoin="round"/>
<path d="M256.92 180C257.416 176.302 257.626 172.571 257.55 168.84C255.6 169.74 244.224 170.07 243.18 170.094C242.136 170.118 230.76 169.74 228.81 168.84C228.724 172.57 228.925 176.301 229.41 180C230.196 184.866 237.108 204.348 237.264 205.29C237.467 206.198 237.729 207.092 238.05 207.966C238.05 207.966 234.12 210.792 232.392 211.89C230.664 212.988 231.924 213.462 233.652 213.462C235.38 213.462 238.992 212.988 240.09 212.988C241.062 212.988 242.754 212.142 243.15 211.938C243.546 212.142 245.238 212.988 246.204 212.988C247.308 212.988 250.92 213.462 252.648 213.462C254.376 213.462 255.648 212.988 253.908 211.89C252.168 210.792 248.25 207.966 248.25 207.966C248.571 207.092 248.834 206.198 249.036 205.29C249.222 204.33 256.134 184.848 256.92 180Z" fill="#263238" stroke="#263238" stroke-width="1.04742" stroke-linecap="round" stroke-linejoin="round"/>
<path d="M240.804 138.294C240.804 138.294 234.726 140.28 231.588 142.272C228.45 144.264 225.3 155.052 225.3 155.472C225.12 156.224 224.875 156.958 224.568 157.668C224.568 157.668 221.424 156.936 220.8 159.552C220.176 162.168 223.938 165.522 225.93 165.63C227.922 165.738 228.546 165.108 228.546 165.108C228.546 165.108 227.292 167.622 227.814 168.666C228.336 169.71 232.74 173.592 241.434 173.466C250.128 173.34 256.434 171.894 257.352 170.64C258.27 169.386 258.402 166.764 258.402 166.764C258.402 166.764 261.648 165.924 262.8 163.83C263.952 161.736 263.742 159.534 263.112 157.338C262.482 155.142 259.236 148.764 257.04 145.2C254.844 141.636 250.23 139.65 248.04 139.02C245.85 138.39 242.268 138.294 240.804 138.294Z" fill="#0860FB" stroke="#263238" stroke-width="1.04742" stroke-linecap="round" stroke-linejoin="round"/>
<path d="M242.646 147.114C243.516 146.826 246.246 144.402 247.296 141.978C247.711 141.05 248.004 140.072 248.166 139.068L248.028 139.026C245.832 138.396 242.268 138.294 240.828 138.294C240.828 138.294 239.556 138.708 237.876 139.35C237.886 140.647 238.13 141.931 238.596 143.142C239.544 145.566 241.8 147.408 242.646 147.114Z" fill="white" stroke="#263238" stroke-width="1.04742" stroke-linecap="round" stroke-linejoin="round"/>
<path d="M252.636 152.01C252.636 152.01 255.15 165.42 258 166.8" stroke="#263238" stroke-width="1.04742" stroke-linecap="round" stroke-linejoin="round"/>
<path d="M228.546 165.108C228.546 165.108 231.69 153.27 231.9 152.118" stroke="#263238" stroke-width="1.04742" stroke-linecap="round" stroke-linejoin="round"/>
<path d="M256.698 158.07C256.698 158.07 254.958 158.46 254.958 159.72" stroke="#263238" stroke-width="1.04742" stroke-linecap="round" stroke-linejoin="round"/>
<path d="M227.136 158.262C227.136 158.262 229.074 159.522 228.882 161.46" stroke="#263238" stroke-width="1.04742" stroke-linecap="round" stroke-linejoin="round"/>
<path d="M240.12 213C241.092 213 242.784 212.154 243.18 211.95C243.576 212.154 245.268 213 246.234 213C247.338 213 250.95 213.474 252.678 213.474C254.406 213.474 255.678 213 253.938 211.902C252.432 210.948 249.276 208.692 248.472 208.116C246.618 209.808 242.952 209.388 242.952 209.388C242.209 209.276 241.474 209.12 240.75 208.92C239.652 208.602 238.08 207.978 238.08 207.978C238.08 207.978 234.15 210.804 232.422 211.902C230.694 213 231.954 213.474 233.682 213.474C235.41 213.474 239.022 213 240.12 213Z" fill="#0860FB" stroke="#263238" stroke-width="1.04742" stroke-linecap="round" stroke-linejoin="round"/>
<path d="M242.952 208.002V180.606" stroke="white" stroke-width="1.04742" stroke-linecap="round" stroke-linejoin="round"/>
<path d="M243.18 211.92L242.952 209.358V208.002" stroke="#263238" stroke-width="1.04742" stroke-linecap="round" stroke-linejoin="round"/>
<path d="M240.75 179.664H245.304" stroke="white" stroke-width="1.04742" stroke-linecap="round" stroke-linejoin="round"/>
<path d="M234.798 122.574C234.798 122.574 231.534 124.53 232.02 126.246C232.506 127.962 233.982 128.292 233.658 129.246C233.334 130.2 232.2 130.8 233.49 131.4C234.225 131.729 234.993 131.977 235.782 132.138C235.782 132.138 236.982 136.302 239.046 137.034C241.11 137.766 244.686 137.28 247.218 136.956C248.073 136.872 248.883 136.53 249.539 135.975C250.195 135.42 250.666 134.678 250.89 133.848C251.136 132.954 249.828 134.016 249.174 133.032C248.52 132.048 249.504 129.522 250.236 127.314C250.968 125.106 248.766 120.942 245.91 119.556C243.054 118.17 237.6 118.896 234.798 122.574Z" fill="#263238" stroke="#263238" stroke-width="1.04742" stroke-linecap="round" stroke-linejoin="round"/>
<path d="M240.282 136.8C239.867 138.17 239.586 139.576 239.442 141C239.334 142.8 240.804 144.774 242.376 144.666C243.948 144.558 245.304 141.42 245.514 139.866C245.724 138.312 244.992 134.106 244.992 134.106C244.992 134.106 242.592 134.214 241.638 135.048C241.078 135.54 240.618 136.134 240.282 136.8Z" fill="white" stroke="#263238" stroke-width="1.04742" stroke-linecap="round" stroke-linejoin="round"/>
<path d="M238.152 124.86C238.152 124.86 238.23 127.308 240.684 129.66C242.159 131.087 243.909 132.199 245.826 132.93C245.783 133.466 245.645 133.99 245.418 134.478C245.311 134.682 245.145 134.848 244.942 134.956C244.738 135.063 244.507 135.105 244.278 135.078H243.456C243.456 135.078 242.256 137.892 240.804 138.3C239.352 138.708 235.782 138.426 235.29 134.832C234.798 131.238 234.72 128.298 235.128 127.56C235.536 126.822 238.152 124.86 238.152 124.86Z" fill="white" stroke="#263238" stroke-width="1.04742" stroke-linecap="round" stroke-linejoin="round"/>
<path d="M263.826 156.48C264.198 155.73 264.424 154.915 264.492 154.08C264.492 152.988 262.464 151.422 262.092 151.032C261.72 150.642 261.348 150.684 261.27 151.23C261.269 151.537 261.331 151.84 261.451 152.122C261.572 152.403 261.749 152.657 261.972 152.868C262.276 153.108 262.497 153.437 262.602 153.81C262.638 154.08 261.93 155.406 262.284 156.264C262.638 157.122 263.634 157.38 263.826 156.48Z" fill="white" stroke="#263238" stroke-width="1.04742" stroke-linecap="round" stroke-linejoin="round"/>
<path d="M182.568 150.354C182.568 150.354 191.4 153.18 196.71 159.78C202.02 166.38 205.506 165.432 212.106 163.236C218.706 161.04 221.22 153.18 230.334 159.78C239.448 166.38 241.332 168.888 248.874 165.12C256.416 161.352 260.496 152.238 267.414 155.376C274.332 158.514 271.182 174.576 271.812 182.376C272.442 190.176 271.494 209.718 273.066 212.232C274.638 214.746 290.664 212.832 290.664 212.832" stroke="#263238" stroke-width="3.14226" stroke-linecap="round" stroke-linejoin="round"/>
<path d="M199.11 139.866C199.11 139.866 197.352 136.998 194.76 137.748C192.018 138.54 190.602 142.458 189.96 144.9C189.318 147.342 188.886 149.982 187.71 152.256C187.71 152.256 182.514 152.166 179.616 151.326C177.405 150.637 175.23 149.836 173.1 148.926C173.1 148.926 172.074 147.492 171.348 147.21C170.622 146.928 168.738 146.376 168.6 146.808C168.462 147.24 170.784 148.662 170.784 148.662C170.784 148.662 166.464 149.262 166.032 149.724C165.6 150.186 169.086 151.566 169.086 151.566C169.086 151.566 170.388 151.986 173.556 151.23C173.556 151.23 185.178 158.61 187.494 159.456C189.81 160.302 191.094 160.572 192.672 157.524C194.25 154.476 199.488 146.916 200.322 143.874" fill="#0860FB"/>
<path d="M199.11 139.866C199.11 139.866 197.352 136.998 194.76 137.748C192.018 138.54 190.602 142.458 189.96 144.9C189.318 147.342 188.886 149.982 187.71 152.256C187.71 152.256 182.514 152.166 179.616 151.326C177.405 150.637 175.23 149.836 173.1 148.926C173.1 148.926 172.074 147.492 171.348 147.21C170.622 146.928 168.738 146.376 168.6 146.808C168.462 147.24 170.784 148.662 170.784 148.662C170.784 148.662 166.464 149.262 166.032 149.724C165.6 150.186 169.086 151.566 169.086 151.566C169.086 151.566 170.388 151.986 173.556 151.23C173.556 151.23 185.178 158.61 187.494 159.456C189.81 160.302 191.094 160.572 192.672 157.524C194.25 154.476 199.488 146.916 200.322 143.874" stroke="#263238" stroke-width="1.04742" stroke-linecap="round" stroke-linejoin="round"/>
<path d="M176.118 150.15C174.42 149.514 173.118 148.95 173.118 148.95C173.118 148.95 172.092 147.516 171.366 147.234C170.64 146.952 168.756 146.4 168.618 146.832C168.48 147.264 170.802 148.686 170.802 148.686C170.802 148.686 166.482 149.286 166.05 149.748C165.618 150.21 169.104 151.59 169.104 151.59C169.104 151.59 170.406 152.01 173.574 151.254L175.2 152.28L176.118 150.15Z" fill="white" stroke="#263238" stroke-width="1.04742" stroke-linecap="round" stroke-linejoin="round"/>
<path d="M220.914 157.584C220.542 156.834 220.316 156.019 220.248 155.184C220.248 154.092 222.282 152.532 222.648 152.142C223.014 151.752 223.386 151.794 223.464 152.34C223.465 152.646 223.403 152.95 223.283 153.232C223.162 153.513 222.985 153.767 222.762 153.978C222.458 154.218 222.237 154.547 222.132 154.92C222.096 155.184 222.804 156.516 222.45 157.374C222.096 158.232 221.106 158.478 220.914 157.584Z" fill="white" stroke="#263238" stroke-width="1.04742" stroke-linecap="round" stroke-linejoin="round"/>
<path d="M222.312 154.29C222.312 154.29 220.638 157.38 221.61 158.49C222.582 159.6 223.524 155.994 223.704 154.998C223.884 154.002 222.93 153 222.312 154.29Z" fill="white" stroke="#263238" stroke-width="1.04742" stroke-linecap="round" stroke-linejoin="round"/>
<path d="M223.692 155.4C223.692 155.4 222.018 158.49 222.99 159.6C223.962 160.71 224.904 157.104 225.084 156.108C225.264 155.112 224.31 154.074 223.692 155.4Z" fill="white" stroke="#263238" stroke-width="1.04742" stroke-linecap="round" stroke-linejoin="round"/>
<path d="M225.21 155.658C225.21 155.658 223.536 158.748 224.508 159.858C225.48 160.968 226.422 157.362 226.602 156.366C226.782 155.37 225.828 154.362 225.21 155.658Z" fill="white" stroke="#263238" stroke-width="1.04742" stroke-linecap="round" stroke-linejoin="round"/>
<path d="M227.154 155.682C227.154 155.682 225.594 158.082 226.446 158.988C227.298 159.894 228.216 157.044 228.396 156.222C228.576 155.4 227.73 154.602 227.154 155.682Z" fill="white" stroke="#263238" stroke-width="1.04742" stroke-linecap="round" stroke-linejoin="round"/>
<path d="M262.71 154.41C262.71 154.41 264.384 157.5 263.412 158.61C262.44 159.72 261.498 156.108 261.318 155.112C261.138 154.116 262.092 153.114 262.71 154.41Z" fill="white" stroke="#263238" stroke-width="1.04742" stroke-linecap="round" stroke-linejoin="round"/>
<path d="M261.33 155.49C261.33 155.49 263.004 158.58 262.032 159.69C261.06 160.8 260.118 157.188 259.938 156.192C259.758 155.196 260.712 154.2 261.33 155.49Z" fill="white" stroke="#263238" stroke-width="1.04742" stroke-linecap="round" stroke-linejoin="round"/>
<path d="M259.8 155.778C259.8 155.778 261.474 158.868 260.502 159.978C259.53 161.088 258.588 157.482 258.414 156.48C258.24 155.478 259.2 154.482 259.8 155.778Z" fill="white" stroke="#263238" stroke-width="1.04742" stroke-linecap="round" stroke-linejoin="round"/>
<path d="M257.868 155.802C257.868 155.802 259.428 158.232 258.576 159.108C257.724 159.984 256.806 157.164 256.632 156.342C256.458 155.52 257.292 154.722 257.868 155.802Z" fill="white" stroke="#263238" stroke-width="1.04742" stroke-linecap="round" stroke-linejoin="round"/>
<path d="M51.432 189.99V193.398C50.2494 194.691 49.3989 196.251 48.954 197.946C48.228 200.73 45.954 212.712 46.554 213.024C47.154 213.336 52.8 214.626 54.6 214.356C56.664 214.044 58.422 214.152 57.384 213.012C56.346 211.872 50.892 208.686 50.892 208.686C50.892 208.686 56.892 200.01 58.224 196.806C59.556 193.602 59.772 188.646 59.772 188.646L51.72 188.34L51.432 189.99Z" fill="white" stroke="#263238" stroke-width="1.04742" stroke-linecap="round" stroke-linejoin="round"/>
<path d="M54.6 214.356C56.664 214.044 58.422 214.152 57.384 213.012C56.346 211.872 50.892 208.686 50.892 208.686L50.688 209.922L46.758 209.442C46.47 211.446 46.344 212.916 46.554 213.042C47.196 213.33 52.8 214.626 54.6 214.356Z" fill="#263238" stroke="#263238" stroke-width="1.04742" stroke-linecap="round" stroke-linejoin="round"/>
<path d="M71.16 191.754L72.09 193.41C71.7045 194.153 71.4777 194.969 71.424 195.804C71.3703 196.64 71.4908 197.477 71.778 198.264C72.708 201.156 74.88 211.794 74.88 212.412C74.88 213.03 76.218 213.444 77.28 213.444C78.342 213.444 81.282 213.648 81.696 213.648C82.11 213.648 85.104 214.164 86.136 213.546C87.168 212.928 84.822 211.686 83.274 210.966C81.726 210.246 78.318 208.386 78.318 208.386C78.318 208.386 79.14 199.914 79.14 196.194C79.14 192.474 79.968 191.238 78.834 188.964C77.7 186.69 70.572 190.002 70.572 190.002L71.16 191.754Z" fill="white" stroke="#263238" stroke-width="1.04742" stroke-linecap="round" stroke-linejoin="round"/>
<path d="M83.2442 210.966C81.6962 210.24 78.2881 208.386 78.2881 208.386L77.8741 209.934L74.5562 210.534C74.7542 211.566 74.8802 212.274 74.8802 212.418C74.8802 213.018 76.2182 213.45 77.2802 213.45C78.3422 213.45 81.2822 213.654 81.6962 213.654C82.1102 213.654 85.1041 214.17 86.1362 213.552C87.1682 212.934 84.7922 211.686 83.2442 210.966Z" fill="#263238" stroke="#263238" stroke-width="1.04742" stroke-linecap="round" stroke-linejoin="round"/>
<path d="M65.5981 123C64.7884 121.616 63.8631 120.304 62.8321 119.076C61.4101 117.474 56.9521 117.564 54.9961 119.676C53.0401 121.788 53.6581 125.556 54.3961 126.624C55.1341 127.692 56.6221 132.684 56.6221 132.684L56.976 136.248L65.262 139.188L63.57 133.398C63.57 133.398 66.78 132.798 67.044 131.796C67.308 130.794 66.51 127.428 66.51 127.428C66.51 127.428 67.5781 126.714 67.4881 126.09C67.3981 125.466 65.5981 123 65.5981 123Z" fill="white" stroke="#263238" stroke-width="1.04742" stroke-linecap="round" stroke-linejoin="round"/>
<path d="M56.0641 126.84C56.0641 126.84 57.4801 128.04 58.2541 126.666C59.0281 125.292 59.6161 123.948 59.6161 122.784C59.6161 121.62 56.7061 120.654 58.6441 119.874C60.5821 119.094 61.9801 120.828 62.8441 119.088C63.7081 117.348 62.9221 117.162 58.2661 117.162C53.6101 117.162 51.2821 119.49 52.2661 122.4C53.053 124.549 54.0267 126.625 55.1761 128.604L56.0641 126.84Z" fill="#263238" stroke="#263238" stroke-width="1.04742" stroke-linecap="round" stroke-linejoin="round"/>
<path d="M65.8622 125.058C65.8622 125.498 65.7316 125.929 65.487 126.295C65.2424 126.661 64.8948 126.946 64.488 127.115C64.0813 127.283 63.6337 127.327 63.2019 127.241C62.7701 127.155 62.3734 126.943 62.0621 126.632C61.7508 126.321 61.5388 125.924 61.4529 125.492C61.367 125.06 61.4111 124.613 61.5796 124.206C61.7481 123.799 62.0334 123.452 62.3995 123.207C62.7655 122.963 63.1959 122.832 63.6362 122.832C64.2265 122.832 64.7927 123.067 65.2102 123.484C65.6276 123.901 65.8622 124.468 65.8622 125.058Z" stroke="#263238" stroke-width="1.04742" stroke-linecap="round" stroke-linejoin="round"/>
<path d="M65.5381 123.084C65.7971 122.978 66.0742 122.923 66.3541 122.922C66.8176 122.923 67.2677 123.077 67.6339 123.362C68.0001 123.646 68.2617 124.043 68.3777 124.492C68.4937 124.941 68.4574 125.415 68.2747 125.841C68.092 126.267 67.7732 126.621 67.3681 126.846" stroke="#263238" stroke-width="1.04742" stroke-linecap="round" stroke-linejoin="round"/>
<path d="M61.4102 125.058L56.0642 126.84" stroke="#263238" stroke-width="1.04742" stroke-linecap="round" stroke-linejoin="round"/>
<path d="M57.6 127.998C57.6 127.998 56.532 125.772 55.464 126.198C54.396 126.624 54.93 130.122 55.998 130.476C56.3569 130.557 56.7299 130.55 57.0859 130.458C57.4418 130.365 57.7704 130.188 58.044 129.942C58.044 129.942 58.938 131.814 60.006 132.342" fill="white"/>
<path d="M57.6 127.998C57.6 127.998 56.532 125.772 55.464 126.198C54.396 126.624 54.93 130.122 55.998 130.476C56.3569 130.557 56.7299 130.55 57.0859 130.458C57.4418 130.365 57.7704 130.188 58.044 129.942C58.044 129.942 58.938 131.814 60.006 132.342" stroke="#263238" stroke-width="1.04742" stroke-linecap="round" stroke-linejoin="round"/>
<path d="M50.5921 168L49.9261 176.532L47.9341 189.162C47.9341 189.162 52.5901 192.816 56.9341 192.816C61.2781 192.816 62.4721 192.264 62.4721 192.264L64.9081 179.304L67.3441 192.93C67.3441 192.93 72.1441 192.156 75.3241 191.376C77.5353 190.761 79.6309 189.788 81.5281 188.496L75.1021 171.768L73.7101 163.14C73.7101 163.14 66.5101 163.806 62.1841 164.028C57.8581 164.25 52.1041 163.14 52.1041 163.14L50.5921 168Z" fill="#0860FB" stroke="#263238" stroke-width="1.04742" stroke-linecap="round" stroke-linejoin="round"/>
<path d="M55.1581 133.908C55.1581 133.908 65.3581 137.466 68.5081 140.922C70.2481 142.842 72.1981 155.982 72.9001 159.192C73.6021 162.402 74.8261 168.792 74.8261 168.792C74.8261 168.792 68.6041 171.6 63.7921 171.702C58.9801 171.804 49.7461 169.596 49.7461 169.596C49.7461 169.596 50.8441 155.358 50.8441 148.74C50.8441 142.122 50.9461 137.802 52.0441 135.696C52.0501 135.714 53.8561 133.704 55.1581 133.908Z" fill="#263238" stroke="#263238" stroke-width="1.04742" stroke-linecap="round" stroke-linejoin="round"/>
<path d="M52.4761 170.628C52.4761 170.628 53.0281 179.934 52.4761 183.372C52.0885 185.59 51.4191 187.75 50.4841 189.798" stroke="#263238" stroke-width="1.04742" stroke-linecap="round" stroke-linejoin="round"/>
<path d="M52.698 175.062C53.5311 174.776 54.2755 174.278 54.8582 173.618C55.441 172.957 55.842 172.156 56.022 171.294" stroke="#263238" stroke-width="1.04742" stroke-linecap="round" stroke-linejoin="round"/>
<path d="M48.4861 187.362C48.4861 187.362 54.0301 192.126 62.6701 190.362" stroke="#263238" stroke-width="1.04742" stroke-linecap="round" stroke-linejoin="round"/>
<path d="M67.104 190.128C67.104 190.128 76.188 189.132 80.178 186.474" stroke="#263238" stroke-width="1.04742" stroke-linecap="round" stroke-linejoin="round"/>
<path d="M107.736 129.6C107.736 129.6 106.86 130.248 103.806 132.48C100.752 134.712 103.158 138.084 103.158 138.084C103.158 138.084 100.974 138.426 98.058 141.492C95.142 144.558 99.36 149.82 103.302 150.642C107.244 151.464 111.852 146.586 113.232 142.062C114.612 137.538 112.788 130.716 111.87 129.306C110.952 127.896 107.736 129.6 107.736 129.6Z" fill="#263238" stroke="#263238" stroke-width="1.04742" stroke-linecap="round" stroke-linejoin="round"/>
<path d="M119.304 129C119.304 129 120.822 126.654 119.448 123.252C118.074 119.85 113.97 118.296 109.974 120.762C108.642 121.554 107.609 122.764 107.035 124.204C106.462 125.644 106.379 127.233 106.8 128.724C107.19 130.296 109.158 132.714 109.572 132.75C109.986 132.786 113.58 134.094 116.034 132.948C118.488 131.802 119.304 129 119.304 129Z" fill="#263238" stroke="#263238" stroke-width="1.04742" stroke-linecap="round" stroke-linejoin="round"/>
<path d="M101.646 208.2C101.646 208.2 104.496 212.634 109.446 213.39C114.396 214.146 109.944 209.706 109.11 209.034C108.276 208.362 102.318 206.91 101.646 208.2Z" fill="#3A3B3D" stroke="#263238" stroke-width="1.04742" stroke-linecap="round" stroke-linejoin="round"/>
<path d="M128.016 209.34C128.016 209.34 133.458 210.678 133.038 211.854C132.618 213.03 128.184 212.94 125.592 212.268C123 211.596 120.564 210.594 120.9 209.508C121.236 208.422 128.016 209.34 128.016 209.34Z" fill="#3A3B3D" stroke="#263238" stroke-width="1.04742" stroke-linecap="round" stroke-linejoin="round"/>
<path d="M112.542 137.82C112.542 137.82 105.258 138.888 103.926 141.462C102.594 144.036 104.472 158.058 104.472 158.058C104.472 158.058 101.364 164.916 101.322 169.332C101.28 173.748 103.248 181.518 103.092 183.456C102.936 185.394 100.944 207.456 100.944 208.056C100.944 208.656 105.144 210 111.198 210.72C117.252 211.44 128.832 209.286 128.832 209.286C128.832 209.286 128.604 196.266 129.21 188.502C129.816 180.738 128.952 173.76 127.41 170.862C125.868 167.964 118.686 157.53 118.686 157.53C118.686 157.53 122.166 151.218 122.382 148.458C122.598 145.698 121.476 144.258 118.848 141.084C118.067 140.148 117.107 139.377 116.024 138.816C114.941 138.256 113.758 137.917 112.542 137.82Z" fill="#0860FB" stroke="#263238" stroke-width="1.04742" stroke-linecap="round" stroke-linejoin="round"/>
<path d="M118.704 157.536C118.704 157.536 122.184 151.224 122.4 148.464C122.616 145.704 121.494 144.264 118.866 141.09C118.74 140.934 118.608 140.796 118.476 140.652L118.38 140.742C115.68 145.152 106.752 152.688 104.094 154.884C104.298 156.762 104.472 158.058 104.472 158.058C104.472 158.058 101.364 164.916 101.322 169.332C101.372 171.344 101.572 173.35 101.922 175.332C108.228 171.732 116.664 164.994 121.23 161.238C119.802 159.126 118.704 157.536 118.704 157.536Z" fill="#3A3B3D" stroke="#263238" stroke-width="1.04742" stroke-linecap="round" stroke-linejoin="round"/>
<path d="M111.198 132.672C111.4 134.319 111.51 135.975 111.528 137.634C111.432 138.864 111.828 141.672 113.928 142.554C116.028 143.436 117.348 142.206 117.342 140.97C117.266 139.949 117.065 138.942 116.742 137.97L116.802 134.58C116.802 134.58 113.178 132.312 111.198 132.672Z" fill="white" stroke="#263238" stroke-width="1.04742" stroke-linecap="round" stroke-linejoin="round"/>
<path d="M109.314 130.47C109.314 130.47 107.772 129.114 107.724 131.07C107.676 133.026 109.476 133.674 109.872 133.806C110.206 133.851 110.545 133.768 110.82 133.572C110.82 133.572 113.616 135.972 115.86 136.128C118.104 136.284 119.016 135.246 119.544 131.172C120.072 127.098 115.866 122.964 115.866 122.964C115.866 122.964 112.266 129.6 109.314 130.47Z" fill="white" stroke="#263238" stroke-width="1.04742" stroke-linecap="round" stroke-linejoin="round"/>
<path d="M75.0001 168.708C74.9796 168.013 75.0937 167.32 75.3361 166.668C75.7081 165.852 77.7361 165.384 78.1861 165.228C78.6361 165.072 78.8641 165.228 78.7321 165.654C78.6271 165.883 78.4767 166.088 78.2901 166.257C78.1034 166.427 77.8843 166.556 77.6461 166.638C77.3357 166.712 77.0566 166.882 76.8481 167.124C76.7341 167.316 76.8061 168.546 76.2481 169.068C75.6901 169.59 74.8141 169.446 75.0001 168.708Z" fill="white" stroke="#263238" stroke-width="1.04742" stroke-linecap="round" stroke-linejoin="round"/>
<path d="M120.984 150.666C120.984 150.666 113.784 149.724 110.61 154.752C107.436 159.78 101.502 177.372 90.5041 180.204C79.5061 183.036 76.3621 160.404 69.7621 161.034C63.4741 161.634 59.0821 161.034 55.3081 167.946C53.2921 171.648 43.2121 212.07 38.4481 212.484C23.2741 213.81 13.5061 212.946 13.5061 212.946" stroke="#263238" stroke-width="3.14226" stroke-linecap="round" stroke-linejoin="round"/>
<path d="M55.6262 134.196C55.6262 134.196 53.9642 133.53 51.7442 134.856C49.5242 136.182 43.5482 150.702 43.9922 152.256C44.4362 153.81 50.7482 156.69 54.2942 157.686C57.8402 158.682 64.2662 159.906 64.2662 159.906C64.2662 159.906 66.2582 163.008 66.9242 163.116C67.8929 163.103 68.8577 162.992 69.8042 162.786C69.8042 162.786 71.0042 163.782 71.4662 162.672C71.9282 161.562 71.0222 160.128 70.0262 159.018C69.0302 157.908 64.8182 157.356 64.8182 157.356L53.4002 149.484L58.2002 140.622" fill="#263238"/>
<path d="M55.6262 134.196C55.6262 134.196 53.9642 133.53 51.7442 134.856C49.5242 136.182 43.5482 150.702 43.9922 152.256C44.4362 153.81 50.7482 156.69 54.2942 157.686C57.8402 158.682 64.2662 159.906 64.2662 159.906C64.2662 159.906 66.2582 163.008 66.9242 163.116C67.8929 163.103 68.8577 162.992 69.8042 162.786C69.8042 162.786 71.0042 163.782 71.4662 162.672C71.9282 161.562 71.0222 160.128 70.0262 159.018C69.0302 157.908 64.8182 157.356 64.8182 157.356L53.4002 149.484L58.2002 140.622" stroke="#263238" stroke-width="1.04742" stroke-linecap="round" stroke-linejoin="round"/>
<path d="M66.9241 163.11C67.8928 163.097 68.8576 162.986 69.8041 162.78C69.8041 162.78 71.0041 163.776 71.4661 162.666C71.9281 161.556 71.0221 160.122 70.0261 159.012C69.0301 157.902 64.8181 157.35 64.8181 157.35L53.4001 149.484L55.1041 146.31C50.8381 143.652 48.0061 143.85 46.4761 144.384C44.9461 148.056 43.7821 151.536 43.9861 152.25C44.4301 153.804 50.7421 156.684 54.2881 157.68C57.8341 158.676 64.2601 159.9 64.2601 159.9C64.2601 159.9 66.2581 163.002 66.9241 163.11Z" fill="white" stroke="#263238" stroke-width="1.04742" stroke-linecap="round" stroke-linejoin="round"/>
<path d="M138.294 150.912C137.808 145.674 135.294 141.372 132.294 139.662L132.198 138.594L124.362 139.32C119.952 139.728 116.91 145.782 117.564 152.838C118.218 159.894 122.322 165.276 126.732 164.838L134.568 164.112L134.466 163.044C137.106 160.836 138.78 156.15 138.294 150.912Z" fill="#263238" stroke="#263238" stroke-width="1.04742" stroke-linecap="round" stroke-linejoin="round"/>
<path d="M141.84 150.6C141.33 145.098 138.84 140.568 135.666 138.768L135.558 137.646L132.204 137.958C127.572 138.39 124.374 144.744 125.058 152.16C125.742 159.576 130.062 165.234 134.694 164.802L138.048 164.49L137.946 163.368C140.718 161.004 142.35 156.084 141.84 150.6Z" fill="white" stroke="#263238" stroke-width="1.04742" stroke-linecap="round" stroke-linejoin="round"/>
<path d="M145.2 150.27C145.89 157.686 142.692 164.04 138.054 164.472C133.416 164.904 129.102 159.24 128.4 151.83C127.698 144.42 130.908 138.03 135.54 137.628C140.172 137.226 144.504 142.86 145.2 150.27Z" fill="white" stroke="#263238" stroke-width="1.04742" stroke-linecap="round" stroke-linejoin="round"/>
<path d="M148.8 145.938L135.786 147.138C135.603 147.155 135.419 147.136 135.244 147.082C135.069 147.028 134.906 146.94 134.765 146.823C134.624 146.706 134.508 146.562 134.422 146.4C134.337 146.238 134.285 146.061 134.268 145.878C134.251 145.696 134.269 145.511 134.323 145.336C134.377 145.161 134.466 144.998 134.583 144.857C134.7 144.716 134.843 144.6 135.006 144.514C135.168 144.429 135.345 144.377 135.528 144.36L148.542 143.16C148.724 143.143 148.909 143.162 149.084 143.216C149.259 143.27 149.422 143.358 149.563 143.475C149.704 143.592 149.82 143.735 149.906 143.898C149.991 144.06 150.043 144.237 150.06 144.42C150.077 144.602 150.058 144.787 150.004 144.962C149.95 145.137 149.862 145.3 149.745 145.441C149.628 145.582 149.484 145.698 149.322 145.784C149.16 145.869 148.983 145.921 148.8 145.938Z" fill="#3A3B3D" stroke="#263238" stroke-width="1.04742" stroke-linecap="round" stroke-linejoin="round"/>
<path d="M149.766 156.252L136.752 157.452C136.57 157.469 136.386 157.45 136.211 157.396C136.035 157.342 135.873 157.254 135.732 157.137C135.59 157.02 135.474 156.876 135.389 156.714C135.303 156.552 135.251 156.375 135.234 156.192C135.217 156.01 135.236 155.825 135.29 155.65C135.344 155.475 135.432 155.312 135.549 155.171C135.666 155.03 135.81 154.914 135.972 154.828C136.134 154.743 136.312 154.691 136.494 154.674L149.508 153.474C149.876 153.442 150.242 153.557 150.526 153.792C150.81 154.028 150.99 154.367 151.026 154.734C151.044 154.916 151.025 155.101 150.971 155.276C150.917 155.451 150.829 155.614 150.712 155.755C150.595 155.896 150.451 156.012 150.289 156.098C150.126 156.183 149.949 156.235 149.766 156.252Z" fill="#3A3B3D" stroke="#263238" stroke-width="1.04742" stroke-linecap="round" stroke-linejoin="round"/>
<path d="M108.042 138.798C108.042 138.798 104.91 139.398 103.428 141.198C101.946 142.998 98.904 156.888 99.606 158.484C100.308 160.08 111.558 162.084 115.032 162.372C117.826 162.483 120.623 162.358 123.396 162C123.396 162 126.396 161.922 127.218 161.784C128.04 161.646 129.552 160.836 129.576 160.53C129.6 160.224 129.45 159.492 128.328 159.402C127.206 159.312 124.8 158.508 124.494 158.484C125.215 158.294 125.946 158.146 126.684 158.04C126.684 158.04 126.84 157.44 125.604 157.44C124.368 157.44 123.246 157.356 122.778 158.04C122.443 158.573 122.158 159.135 121.926 159.72C121.926 159.72 114.996 160.206 111.234 158.37C107.472 156.534 106.284 155.922 106.284 155.922L108.984 145.122" fill="#0860FB"/>
<path d="M108.042 138.798C108.042 138.798 104.91 139.398 103.428 141.198C101.946 142.998 98.904 156.888 99.606 158.484C100.308 160.08 111.558 162.084 115.032 162.372C117.826 162.483 120.623 162.358 123.396 162C123.396 162 126.396 161.922 127.218 161.784C128.04 161.646 129.552 160.836 129.576 160.53C129.6 160.224 129.45 159.492 128.328 159.402C127.206 159.312 124.8 158.508 124.494 158.484C125.215 158.294 125.946 158.146 126.684 158.04C126.684 158.04 126.84 157.44 125.604 157.44C124.368 157.44 123.246 157.356 122.778 158.04C122.443 158.573 122.158 159.135 121.926 159.72C121.926 159.72 114.996 160.206 111.234 158.37C107.472 156.534 106.284 155.922 106.284 155.922L108.984 145.122" stroke="#263238" stroke-width="1.04742" stroke-linecap="round" stroke-linejoin="round"/>
<path d="M127.2 161.802C128.034 161.664 129.534 160.854 129.558 160.548C129.582 160.242 129.432 159.51 128.31 159.42C127.188 159.33 124.782 158.526 124.476 158.502C125.197 158.312 125.928 158.164 126.666 158.058C126.666 158.058 126.822 157.458 125.586 157.458C124.35 157.458 123.228 157.374 122.76 158.058C122.426 158.591 122.14 159.153 121.908 159.738C121.908 159.738 114.978 160.224 111.216 158.388C107.454 156.552 106.266 155.94 106.266 155.94L107.91 149.34C105.77 148.459 103.512 147.899 101.208 147.678C100.086 152.202 99.1681 157.53 99.5881 158.478C100.284 160.074 111.54 162.078 115.014 162.366C117.808 162.477 120.605 162.352 123.378 161.994C123.378 161.994 126.384 161.94 127.2 161.802Z" fill="white" stroke="#263238" stroke-width="1.04742" stroke-linecap="round" stroke-linejoin="round"/>
<path d="M76.5242 167.544C76.5242 167.544 74.2082 169.278 74.5622 170.424C74.9162 171.57 76.8482 169.224 77.3282 168.534C77.8082 167.844 77.4302 166.8 76.5242 167.544Z" fill="white" stroke="#263238" stroke-width="1.04742" stroke-linecap="round" stroke-linejoin="round"/>
<path d="M76.9801 169.098C76.9801 169.098 74.6701 170.832 75.0181 171.978C75.3661 173.124 77.3101 170.778 77.7841 170.088C78.2581 169.398 77.8861 168.342 76.9801 169.098Z" fill="white" stroke="#263238" stroke-width="1.04742" stroke-linecap="round" stroke-linejoin="round"/>
<path d="M78.0781 170.106C78.0781 170.106 75.7681 171.84 76.1221 172.986C76.4761 174.132 78.4081 171.786 78.8881 171.096C79.3681 170.406 78.9901 169.35 78.0781 170.106Z" fill="white" stroke="#263238" stroke-width="1.04742" stroke-linecap="round" stroke-linejoin="round"/>
<path d="M78.984 170.922C78.984 170.922 76.986 172.206 77.322 173.154C77.658 174.102 79.308 172.308 79.722 171.756C80.136 171.204 79.8 170.316 78.984 170.922Z" fill="white" stroke="#263238" stroke-width="1.04742" stroke-linecap="round" stroke-linejoin="round"/>
</svg>
