<svg width="216" height="200" viewBox="0 0 216 200" fill="none" xmlns="http://www.w3.org/2000/svg">
<path d="M173.941 137.265H173.395V184.698H173.941V137.265Z" fill="#231F20"/>
<path d="M185.421 57.8297H184.875V177.611H185.421V57.8297Z" fill="#231F20"/>
<path d="M179.681 96.4664H179.135V184.698H179.681V96.4664Z" fill="#231F20"/>
<path d="M196.901 79.6972H196.355V170.766H196.901V79.6972Z" fill="#231F20"/>
<path d="M191.162 56.0257H190.616V179.005H191.162V56.0257Z" fill="#231F20"/>
<path d="M198.014 187.645C205.204 180.821 205.204 169.758 198.014 162.935C190.825 156.111 179.168 156.111 171.979 162.935C164.789 169.758 164.789 180.821 171.979 187.645C179.168 194.468 190.825 194.468 198.014 187.645Z" fill="#CCCCCC"/>
<path d="M173.267 156.294H196.742C197.994 156.294 199.01 157.582 199.01 159.171V163.673C199.01 165.262 197.994 166.55 196.742 166.55H173.267C172.015 166.55 170.999 165.262 170.999 163.673V159.171C170.999 157.582 172.015 156.294 173.267 156.294Z" fill="#CCCCCC"/>
<mask id="mask0_153_2134" style="mask-type:luminance" maskUnits="userSpaceOnUse" x="170" y="156" width="30" height="11">
<path d="M173.267 156.294H196.742C197.994 156.294 199.01 157.582 199.01 159.171V163.673C199.01 165.262 197.994 166.55 196.742 166.55H173.267C172.015 166.55 170.999 165.262 170.999 163.673V159.171C170.999 157.582 172.015 156.294 173.267 156.294Z" fill="white"/>
</mask>
<g mask="url(#mask0_153_2134)">
<path d="M200.596 162.572H166.218V163.09H200.596V162.572Z" fill="#0860FB"/>
</g>
<path d="M179.559 54.7683C178.962 56.9957 178.339 59.2101 177.431 61.3441C177.727 60.6782 178.023 60.0122 178.319 59.3462C178.246 59.5082 178.172 59.6715 178.099 59.8347C177.117 62.003 176.521 63.9052 177.21 66.2817C177.816 68.3731 179.29 70.1865 181.261 71.2819C183.296 72.414 185.778 72.7191 188.053 72.1253C190.029 71.6096 192.472 70.1546 193.322 68.2808C194.674 65.2951 195.719 62.3603 196.561 59.2184C197.745 54.8026 195.102 50.1537 190.404 48.927C185.84 47.7346 180.743 50.35 179.559 54.7683Z" fill="#FFC1C1"/>
<path d="M151.75 133.406C153.44 138.17 156.803 142.175 160.776 145.406C164.429 148.378 170.529 146.712 173.034 143.255C175.972 139.202 174.412 134.585 170.767 131.621C172.697 133.19 170.684 131.415 170.316 131.009C169.991 130.649 168.418 128.399 169.698 130.324C168.82 129.005 168.137 127.573 167.614 126.097C166.078 121.768 159.736 120.428 155.832 122.223C151.103 124.399 150.22 129.087 151.75 133.406Z" fill="#FFC1C1"/>
<path d="M171.26 101.279C171.232 104.277 170.61 107.181 170.036 110.118C169.299 113.883 169.189 117.524 169.796 121.327C170.517 125.84 175.748 128.683 180.244 127.782C185.151 126.798 187.765 122.374 187.045 117.867C186.892 116.813 186.859 116.651 186.947 117.382C186.937 116.782 186.954 116.182 186.998 115.584C187.074 114.09 187.363 112.603 187.637 111.133C188.185 108.187 188.834 105.298 188.861 102.293C188.903 97.738 185.573 93.7172 180.595 93.4333C175.99 93.1695 171.301 96.7171 171.26 101.279Z" fill="#FFC1C1"/>
<path d="M194.844 84.546C195.443 85.6746 196.02 86.8113 196.577 87.9588C196.82 88.458 197.052 88.9619 197.284 89.4658C196.224 87.1627 197.285 89.5049 197.482 89.984C198.353 92.1002 199.395 93.7953 201.533 94.9842C203.568 96.1162 206.049 96.4214 208.325 95.8276C212.595 94.7133 216.232 89.7899 214.481 85.5362C213.161 82.3292 211.697 79.1767 210.066 76.1011C207.91 72.0295 201.953 70.9057 198.007 73.1001C193.67 75.5109 192.687 80.472 194.844 84.546Z" fill="#FFC1C1"/>
<path d="M199.252 107.799C198.63 108.723 197.961 109.613 197.255 110.482C197.715 109.917 198.174 109.353 198.634 108.789C198.136 109.392 197.627 109.984 197.104 110.568C195.543 112.316 194.522 114.121 194.522 116.484C194.522 118.694 195.458 120.837 197.104 122.4C198.75 123.961 201.009 124.851 203.338 124.851C205.504 124.851 208.124 124.02 209.571 122.4C211.321 120.441 213.017 118.411 214.475 116.245C217.065 112.398 215.333 107.033 211.313 104.799C207.043 102.424 201.834 103.964 199.252 107.799Z" fill="#FFC1C1"/>
<path d="M192.296 147.868C194.357 148.015 196.414 147.609 198.447 147.344C197.666 147.443 196.885 147.543 196.104 147.643C197.059 147.526 197.993 147.45 198.956 147.497C203.758 147.727 207.77 143.517 207.77 139.131C207.77 134.397 203.753 130.995 198.956 130.765C196.902 130.667 194.848 131.072 192.821 131.332C193.603 131.233 194.383 131.133 195.164 131.033C194.202 131.145 193.263 131.205 192.295 131.137C187.498 130.796 183.481 135.2 183.481 139.502C183.482 144.32 187.506 147.527 192.296 147.868Z" fill="#FFC1C1"/>
<path d="M159.95 75.2116C159.95 75.725 159.512 76.1414 158.971 76.1414C158.43 76.1414 157.991 75.725 157.991 75.2116C157.991 74.6982 158.43 74.2818 158.971 74.2818C159.512 74.2818 159.95 74.6982 159.95 75.2116Z" fill="white"/>
<path d="M186.002 64.5215C186.002 65.0349 185.563 65.4513 185.022 65.4513C184.481 65.4513 184.042 65.0349 184.042 64.5215C184.042 64.0081 184.481 63.5917 185.022 63.5917C185.564 63.5917 186.002 64.0081 186.002 64.5215Z" fill="white"/>
<path d="M198.636 81.2539C198.636 81.7673 198.198 82.1837 197.657 82.1837C197.116 82.1837 196.677 81.7673 196.677 81.2539C196.677 80.7406 197.116 80.3242 197.657 80.3242C198.198 80.3242 198.636 80.7406 198.636 81.2539Z" fill="white"/>
<path d="M185.841 106.331C185.841 106.844 185.403 107.261 184.862 107.261C184.321 107.261 183.882 106.844 183.882 106.331C183.882 105.817 184.321 105.401 184.862 105.401C185.403 105.401 185.841 105.817 185.841 106.331Z" fill="white"/>
<path d="M208.626 114.439C208.626 114.952 208.187 115.368 207.646 115.368C207.105 115.368 206.666 114.952 206.666 114.439C206.666 113.925 207.105 113.509 207.646 113.509C208.188 113.509 208.626 113.925 208.626 114.439Z" fill="white"/>
<path d="M202.58 139.595C202.58 140.108 202.141 140.524 201.601 140.524C201.06 140.524 200.621 140.108 200.621 139.595C200.621 139.081 201.06 138.665 201.601 138.665C202.141 138.665 202.58 139.081 202.58 139.595Z" fill="white"/>
<path d="M162.55 134.722C162.649 135.227 162.297 135.712 161.765 135.806C161.233 135.899 160.722 135.566 160.623 135.061C160.525 134.555 160.876 134.07 161.409 133.977C161.941 133.883 162.452 134.217 162.55 134.722Z" fill="white"/>
<path d="M36.5878 84.2172H33.7437V143.064H36.5878V84.2172Z" fill="#CCCCCC"/>
<path d="M23.7884 89.5711H20.9441V141.504H23.7884V89.5711Z" fill="#CCCCCC"/>
<path d="M50.0991 93.3186H47.2549V145.251H50.0991V93.3186Z" fill="#CCCCCC"/>
<path d="M57.7865 139.609H14.1611C16.1092 142.99 18.911 145.858 22.2825 147.978V192.927H49.6652V147.978C53.0366 145.858 55.8384 142.99 57.7865 139.609Z" fill="#CCCED3"/>
<mask id="mask1_153_2134" style="mask-type:luminance" maskUnits="userSpaceOnUse" x="14" y="139" width="44" height="54">
<path d="M57.7865 139.609H14.1611C16.1092 142.99 18.911 145.858 22.2825 147.978V192.927H49.6652V147.978C53.0366 145.858 55.8384 142.99 57.7865 139.609Z" fill="white"/>
</mask>
<g mask="url(#mask1_153_2134)">
<path d="M70.8175 148.124H17.8406V148.642H70.8175V148.124Z" fill="#FFC1C1"/>
</g>
<path d="M52.9207 62.2195C47.9427 52.096 32.1488 50.6611 25.1878 63.3445C19.2625 74.1434 5.18728 70.3462 1.24751 80.4425C-5.86303 98.6642 19.2738 105.651 29.929 96.1896C37.2776 89.6657 46.6328 93.5469 54.8177 99.7892C68.0916 109.913 88.714 88.316 75.6769 78.1925C65.5589 70.3355 59.0541 74.6934 52.9207 62.2195Z" fill="#FFC1C1"/>
<path d="M16.8084 127.246C14.4839 129.094 17.403 134.02 23.231 133.003C29.059 131.987 32.0328 129.391 28.8209 126.569C25.6103 123.747 21.2093 123.747 16.8084 127.246Z" fill="#FFC1C1"/>
<path d="M33.1102 115.03C37.0811 108.119 43.1696 113.911 46.9635 115.671C54.5664 119.199 55.8028 114.575 59.8036 116.473C63.8581 118.398 62.1692 123.368 53.5531 124.812C46.0637 126.066 29.0545 122.085 33.1102 115.03Z" fill="#FFC1C1"/>
<path d="M180.876 118.705H47.2073C40.6253 118.705 35.2896 113.641 35.2896 107.394V18.0964C35.2896 11.8494 40.6253 6.78525 47.2073 6.78525H180.877C187.459 6.78525 192.795 11.8494 192.795 18.0964V107.394C192.793 113.641 187.458 118.705 180.876 118.705Z" fill="#A4B8EA"/>
<path d="M147.348 24.3872H47.5288V27.477H147.348V24.3872Z" fill="white"/>
<path d="M147.348 48.9352H47.5288V52.025H147.348V48.9352Z" fill="white"/>
<path d="M147.348 73.4845H47.5288V76.5743H147.348V73.4845Z" fill="white"/>
<path d="M147.348 98.0326H47.5288V101.122H147.348V98.0326Z" fill="white"/>
<path d="M168.538 33.1692H158.298C156.827 33.1692 155.635 32.0384 155.635 30.6425V20.9224C155.635 19.5265 156.827 18.3957 158.298 18.3957H168.538C170.009 18.3957 171.2 19.5277 171.2 20.9224V30.6413C171.201 32.0372 170.009 33.1692 168.538 33.1692Z" fill="white"/>
<path d="M168.538 57.5446H158.298C156.827 57.5446 155.635 56.4137 155.635 55.0178V45.2989C155.635 43.9031 156.827 42.7722 158.298 42.7722H168.538C170.009 42.7722 171.2 43.9031 171.2 45.2989V55.0178C171.201 56.4137 170.009 57.5446 168.538 57.5446Z" fill="white"/>
<path d="M168.538 81.9199H158.298C156.827 81.9199 155.635 80.7891 155.635 79.3932V69.6731C155.635 68.2773 156.827 67.1464 158.298 67.1464H168.538C170.009 67.1464 171.2 68.2785 171.2 69.6731V79.3932C171.201 80.7891 170.009 81.9199 168.538 81.9199Z" fill="white"/>
<path d="M168.538 106.296H158.298C156.827 106.296 155.635 105.166 155.635 103.77V94.0496C155.635 92.6538 156.827 91.5229 158.298 91.5229H168.538C170.009 91.5229 171.2 92.6538 171.2 94.0496V103.77C171.201 105.164 170.009 106.296 168.538 106.296Z" fill="white"/>
<path d="M162.196 71.1167L154.986 77.9597L157.659 80.4966L164.869 73.6536L162.196 71.1167Z" fill="#FE958E"/>
<path d="M156.667 84.0575C158.333 83.602 161.186 81.0351 160.733 79.7918C160.287 78.5722 159.248 75.0294 156.783 76.2383L152.396 79.1554L154.538 84.6383L156.667 84.0575Z" fill="#FFB3B6"/>
<path d="M81.1446 116.118H116.364L120.207 154.899L115.425 187.53H101.354L107.093 158.271C107.093 158.271 102.364 138.742 101.688 131.748H97.0258L94.5243 158.789L82.5019 187.314H68.0203L80.5887 156.455C80.5887 156.455 81.0798 125.334 81.1707 120.723C80.9913 119.917 81.1446 116.118 81.1446 116.118Z" fill="#FFC1C1"/>
<path d="M81.1446 116.118H116.364L120.762 71.7184C121.156 68.0963 117.468 64.9875 112.776 64.9875H84.7329C80.0416 64.9875 76.3535 68.0963 76.7474 71.7184L81.1446 116.118Z" fill="#0860FB"/>
<path d="M98.9246 69.6921C92.6865 69.6921 92.7227 65.6654 92.7227 64.6977V58.1455C92.7227 56.6621 95.0546 56.7863 96.4418 56.7863H100.908C102.295 56.7863 104.627 57.9894 104.627 59.4728V64.6966C104.628 65.6547 103.971 69.6921 98.9246 69.6921Z" fill="#E98896"/>
<path d="M108.508 56.7804C106.714 62.5424 101.638 61.66 95.5679 59.9565C89.4981 58.2543 86.0307 52.2037 87.8242 46.4416C89.6178 40.6808 95.9929 37.3899 102.064 39.0921C108.134 40.7943 110.301 51.0184 108.508 56.7804Z" fill="#FFB3B6"/>
<path d="M120.935 70.2882L130.316 87.9954L152.175 78.6598C152.175 78.0873 157.351 83.0283 156.546 84.365C155.241 86.5333 140.152 94.9972 132.13 101.015C127.641 104.381 116.658 90.5482 116.03 89.5545C115.028 87.9682 113.67 78.144 113.48 72.6635C113.437 71.3978 114.432 70.319 115.761 70.1889L117.841 66.6354C118.993 66.523 120.531 69.2579 120.935 70.2882Z" fill="#0860FB"/>
<path d="M79.6496 66.4449C79.6496 66.4449 63.3645 82.9301 57.62 88.1232C54.4505 90.9882 57.62 93.1364 59.431 95.2858C64.4526 101.244 80.7128 111.902 80.7128 111.902L79.8067 102.878L69.9965 91.9913C69.9965 91.9913 83.795 81.8773 84.2561 81.1486C85.5125 79.1613 84.4656 70.4195 84.4656 70.4195L79.6496 66.4449Z" fill="#0860FB"/>
<path d="M111.967 187.438H105.128V192.417H118.998C119.915 192.417 120.229 190.465 119.427 190.044L111.967 187.438Z" fill="#FE958E"/>
<path d="M79.4521 187.438H72.6133V192.417H86.4829C87.399 192.417 87.713 190.465 86.9116 190.044L79.4521 187.438Z" fill="#FE958E"/>
<mask id="mask2_153_2134" style="mask-type:luminance" maskUnits="userSpaceOnUse" x="76" y="64" width="45" height="53">
<path d="M81.1446 116.118H116.364L120.762 71.7184C121.156 68.0963 117.468 64.9875 112.776 64.9875H84.7329C80.0416 64.9875 76.3535 68.0963 76.7474 71.7184L81.1446 116.118Z" fill="white"/>
</mask>
<g mask="url(#mask2_153_2134)">
<path d="M118.442 77.7702H117.896V102.011H118.442V77.7702Z" fill="#FC6262"/>
</g>
<mask id="mask3_153_2134" style="mask-type:luminance" maskUnits="userSpaceOnUse" x="76" y="64" width="45" height="53">
<path d="M81.1446 116.118H116.364L120.762 71.7184C121.156 68.0963 117.468 64.9875 112.776 64.9875H84.7329C80.0416 64.9875 76.3535 68.0963 76.7474 71.7184L81.1446 116.118Z" fill="white"/>
</mask>
<g mask="url(#mask3_153_2134)">
<path d="M78.4879 78.9547L77.9431 78.9875L79.5434 102.896L80.0882 102.863L78.4879 78.9547Z" fill="#FC6262"/>
</g>
<path d="M162.202 71.1116L164.876 73.6489L165.956 71.0027L165.239 70.2433L162.202 71.1116Z" fill="#FEE2E3"/>
<path d="M165.239 70.2433L165.957 71.0027C165.957 71.0027 166.976 70.086 166.584 69.7133C166.114 69.2662 165.239 70.2433 165.239 70.2433Z" fill="#0E24A5"/>
<mask id="mask4_153_2134" style="mask-type:luminance" maskUnits="userSpaceOnUse" x="68" y="116" width="53" height="72">
<path d="M81.1446 116.118H116.364L120.207 154.899L115.425 187.53H101.354L107.093 158.271C107.093 158.271 102.364 138.742 101.688 131.748H97.0258L94.5243 158.789L82.5019 187.314H68.0203L80.5887 156.455C80.5887 156.455 81.0798 125.334 81.1707 120.723C80.9913 119.917 81.1446 116.118 81.1446 116.118Z" fill="white"/>
</mask>
<g mask="url(#mask4_153_2134)">
<path d="M125.126 118.249H61.5544V119.577H125.126V118.249Z" fill="#FFC1C1"/>
<path d="M125.126 122.898H61.5544V124.226H125.126V122.898Z" fill="#FFC1C1"/>
<path d="M125.126 127.545H61.5544V128.874H125.126V127.545Z" fill="#FFC1C1"/>
<path d="M125.126 132.194H61.5544V133.523H125.126V132.194Z" fill="#FFC1C1"/>
<path d="M125.126 136.843H61.5544V138.172H125.126V136.843Z" fill="#FFC1C1"/>
<path d="M125.126 141.491H61.5544V142.819H125.126V141.491Z" fill="#FFC1C1"/>
<path d="M125.126 146.14H61.5544V147.468H125.126V146.14Z" fill="#FFC1C1"/>
<path d="M125.126 150.789H61.5544V152.117H125.126V150.789Z" fill="#FFC1C1"/>
<path d="M125.126 155.436H61.5544V156.765H125.126V155.436Z" fill="#FFC1C1"/>
<path d="M125.126 160.085H61.5544V161.414H125.126V160.085Z" fill="#FFC1C1"/>
<path d="M125.126 164.733H61.5544V166.061H125.126V164.733Z" fill="#FFC1C1"/>
<path d="M125.126 169.382H61.5544V170.71H125.126V169.382Z" fill="#FFC1C1"/>
<path d="M125.126 174.031H61.5544V175.359H125.126V174.031Z" fill="#FFC1C1"/>
<path d="M125.126 178.678H61.5544V180.007H125.126V178.678Z" fill="#FFC1C1"/>
<path d="M125.126 183.327H61.5544V184.656H125.126V183.327Z" fill="#FFC1C1"/>
</g>
<path d="M98.9854 52.555C100.895 51.779 97.7838 48.9081 100.169 47.2827C103.722 44.8625 106.727 43.7387 107.456 39.4163C108.262 34.629 102.719 31.6373 101.808 31.6373C100.897 31.6373 103.722 33.0202 100.624 35.095C98.0257 36.8363 86.599 39.6765 85.9608 46.8509C85.3152 54.1188 87.5998 56.3593 90.515 57.7421C93.429 59.125 89.6039 54.8038 91.972 52.0369C94.3414 49.27 97.7116 53.0743 98.9854 52.555Z" fill="#FE958E"/>
<path d="M158.557 23.1311L157.284 24.3398L163.305 30.0544L164.578 28.8457L158.557 23.1311Z" fill="#FE958E"/>
<path d="M168.138 23.1654L162.117 28.88L163.39 30.0886L169.411 24.374L168.138 23.1654Z" fill="#FE958E"/>
<path d="M158.556 47.3764L157.283 48.5851L163.304 54.2997L164.578 53.091L158.556 47.3764Z" fill="#FE958E"/>
<path d="M168.137 47.4123L162.116 53.1269L163.389 54.3355L169.411 48.621L168.137 47.4123Z" fill="#FE958E"/>
<path d="M58.8226 13.8308C58.8226 15.1675 57.6809 16.251 56.2725 16.251C54.8641 16.251 53.7224 15.1675 53.7224 13.8308V2.42026C53.7224 1.08356 54.8641 0 56.2725 0C57.6809 0 58.8226 1.08356 58.8226 2.42026V13.8308Z" fill="#0860FB"/>
<path d="M177.584 13.8308C177.584 15.1675 176.442 16.251 175.034 16.251C173.625 16.251 172.484 15.1675 172.484 13.8308V2.42026C172.484 1.08356 173.625 0 175.034 0C176.442 0 177.584 1.08356 177.584 2.42026V13.8308Z" fill="#0860FB"/>
</svg>
