<svg width="25" height="25" viewBox="0 0 25 25" fill="none" xmlns="http://www.w3.org/2000/svg">
<path d="M3.49259 9.32337C4.17122 6.43022 6.43022 4.17122 9.32337 3.49259C11.4128 3.00247 13.5872 3.00247 15.6767 3.49259C18.5698 4.17122 20.8288 6.43022 21.5074 9.32337C21.9975 11.4128 21.9975 13.5872 21.5074 15.6767C20.8288 18.5698 18.5698 20.8288 15.6767 21.5074C13.5872 21.9975 11.4128 21.9975 9.32338 21.5074C6.43022 20.8288 4.17122 18.5698 3.49259 15.6767C3.00247 13.5872 3.00247 11.4128 3.49259 9.32337Z"  stroke-width="1.5"/>
<path d="M12.5 16.1458V11.9791"  stroke-width="1.5" stroke-linecap="round" stroke-linejoin="round"/>
<path d="M12.5 9.89579C12.7877 9.89579 13.0208 9.66261 13.0208 9.37496C13.0208 9.08731 12.7877 8.85413 12.5 8.85413C12.2124 8.85413 11.9792 9.08731 11.9792 9.37496C11.9792 9.66261 12.2124 9.89579 12.5 9.89579Z"  stroke-linecap="round" stroke-linejoin="round"/>
</svg>
