<svg width="14" height="14" viewBox="0 0 14 14" fill="none" xmlns="http://www.w3.org/2000/svg">
<g id="Frame" clip-path="url(#clip0_12_977)">
<g id="SVGRepo_iconCarrier">
<g id="Page-1">
<g id="Dribbble-Light-Preview">
<g id="icons">
<path id="arrow_up-[#362]" fill-rule="evenodd" clip-rule="evenodd" d="M13.3735 6.14642L8.07989 0.861343C7.81991 0.601781 7.39784 0.601781 7.13718 0.861343C6.87719 1.12157 6.87719 1.54286 7.13718 1.80309L11.4311 6.08919C11.6411 6.29883 11.4924 6.6569 11.1951 6.6569L1.33347 6.6569C0.965487 6.6569 0.666806 6.96038 0.666806 7.32843V7.33043C0.666806 7.69847 0.965487 7.98798 1.33347 7.98798L11.1951 7.98798C11.4924 7.98798 11.6411 8.34671 11.4311 8.55636L7.11668 12.8638C6.85602 13.1233 6.85602 13.5453 7.11668 13.8048C7.37666 14.0651 7.79907 14.0651 8.05906 13.8048L13.6095 8.26418C14.1302 7.74439 14.1302 6.90182 13.6095 6.38203L13.3735 6.14642Z" fill="#0860FB"/>
</g>
</g>
</g>
</g>
</g>
<defs>
<clipPath id="clip0_12_977">
<rect width="13.3333" height="13.3333" fill="white" transform="matrix(0 1 -1 0 14 0.666672)"/>
</clipPath>
</defs>
</svg>
