<svg width="25" height="25" viewBox="0 0 25 25" fill="none" xmlns="http://www.w3.org/2000/svg">
<path d="M2.08334 12.4996C2.08334 7.58915 2.08334 5.13392 3.60883 3.60843C4.90135 2.31591 6.86133 2.11852 10.4167 2.08838M22.9167 12.4996C22.9167 7.58915 22.9167 5.13392 21.3911 3.60843C20.0986 2.31591 18.1386 2.11852 14.5833 2.08838"  stroke-width="1.5" stroke-linecap="round"/>
<path d="M10.4167 22.9167C7.49973 22.9167 6.04126 22.9167 4.92714 22.349C3.94713 21.8497 3.15035 21.0529 2.65101 20.0729C2.08334 18.9588 2.08334 17.5003 2.08334 14.5833C2.08334 11.6664 2.08334 10.2079 2.65101 9.0938C3.15035 8.11379 3.94713 7.31701 4.92714 6.81768C6.04126 6.25 7.49973 6.25 10.4167 6.25H14.5833C17.5003 6.25 18.9588 6.25 20.0729 6.81768C21.0529 7.31701 21.8497 8.11379 22.349 9.0938C22.9167 10.2079 22.9167 11.6664 22.9167 14.5833C22.9167 17.5003 22.9167 18.9588 22.349 20.0729C21.8497 21.0529 21.0529 21.8497 20.0729 22.349C18.9588 22.9167 17.5003 22.9167 14.5833 22.9167"  stroke-width="1.5" stroke-linecap="round"/>
<path d="M12.5 17.7083V11.4583M12.5 11.4583L15.1042 14.0624M12.5 11.4583L9.89584 14.0624"  stroke-width="1.5" stroke-linecap="round" stroke-linejoin="round"/>
</svg>
