<svg width="25" height="27" viewBox="0 0 25 27" fill="none" xmlns="http://www.w3.org/2000/svg">
<path d="M20.3125 4.21875H4.6875C3.39308 4.21875 2.34375 5.35203 2.34375 6.75V21.9375C2.34375 23.3355 3.39308 24.4688 4.6875 24.4688H20.3125C21.6069 24.4688 22.6562 23.3355 22.6562 21.9375V6.75C22.6562 5.35203 21.6069 4.21875 20.3125 4.21875Z"  stroke-width="1.5" stroke-linejoin="round"/>
<path d="M6.25 2.53125V4.21875"  stroke-width="1.5" stroke-linecap="round" stroke-linejoin="round"/>
<path d="M18.75 2.53125V4.21875"  stroke-width="1.5" stroke-linecap="round" stroke-linejoin="round"/>
<path d="M22.6562 8.4375H2.34375"  stroke-width="1.5" stroke-linecap="round" stroke-linejoin="round"/>
<path d="M14.5 12.5L17.075 15C17.2118 15.1282 17.321 15.2829 17.3955 15.4549C17.4701 15.6269 17.5086 15.8125 17.5086 16C17.5086 16.1875 17.4701 16.3729 17.3955 16.5449C17.321 16.7169 17.2118 16.8718 17.075 17L14.5 19.5"  stroke-width="1.5" stroke-linecap="round" stroke-linejoin="round"/>
<path d="M8.5 12.5L11.075 15C11.2118 15.1282 11.321 15.2829 11.3955 15.4549C11.4701 15.6269 11.5086 15.8125 11.5086 16C11.5086 16.1875 11.4701 16.3729 11.3955 16.5449C11.321 16.7169 11.2118 16.8718 11.075 17L8.5 19.5"  stroke-width="1.5" stroke-linecap="round" stroke-linejoin="round"/>
</svg>
