<svg width="25" height="25" viewBox="0 0 25 25" fill="none" xmlns="http://www.w3.org/2000/svg">
<path d="M20.3125 3.90625H4.6875C3.39308 3.90625 2.34375 4.95558 2.34375 6.25V20.3125C2.34375 21.6069 3.39308 22.6562 4.6875 22.6562H20.3125C21.6069 22.6562 22.6562 21.6069 22.6562 20.3125V6.25C22.6562 4.95558 21.6069 3.90625 20.3125 3.90625Z"  stroke-width="1.5" stroke-linejoin="round"/>
<path d="M6.25 2.34375V3.90625"  stroke-width="1.5" stroke-linecap="round" stroke-linejoin="round"/>
<path d="M18.75 2.34375V3.90625"  stroke-width="1.5" stroke-linecap="round" stroke-linejoin="round"/>
<path d="M9.52148 10.9375H6.10352C5.75294 10.9375 5.46875 11.2217 5.46875 11.5723V14.9902C5.46875 15.3408 5.75294 15.625 6.10352 15.625H9.52148C9.87206 15.625 10.1562 15.3408 10.1562 14.9902V11.5723C10.1562 11.2217 9.87206 10.9375 9.52148 10.9375Z"  stroke-width="1.5" stroke-linecap="round" stroke-linejoin="round"/>
<path d="M22.6562 7.8125H2.34375"  stroke-width="1.5" stroke-linecap="round" stroke-linejoin="round"/>
</svg>
