<svg width="20" height="20" viewBox="0 0 20 20" fill="none" xmlns="http://www.w3.org/2000/svg">
<g id="Frame">
<g id="SVGRepo_iconCarrier">
<path id="Vector" d="M5.83333 9.16667C5.83333 8.70642 6.20643 8.33333 6.66666 8.33333C7.12689 8.33333 7.49999 8.70642 7.49999 9.16667C7.49999 9.62692 7.12689 10 6.66666 10C6.20643 10 5.83333 9.62692 5.83333 9.16667Z" fill="#9B9B9B"/>
<path id="Vector_2" d="M5.83333 13.3333C5.83333 12.8731 6.20643 12.5 6.66666 12.5C7.12689 12.5 7.49999 12.8731 7.49999 13.3333C7.49999 13.7936 7.12689 14.1667 6.66666 14.1667C6.20643 14.1667 5.83333 13.7936 5.83333 13.3333Z" fill="#9B9B9B"/>
<path id="Vector_3" d="M9.16666 9.16667C9.16666 8.70642 9.53975 8.33333 10 8.33333C10.4602 8.33333 10.8333 8.70642 10.8333 9.16667C10.8333 9.62692 10.4602 10 10 10C9.53975 10 9.16666 9.62692 9.16666 9.16667Z" fill="#9B9B9B"/>
<path id="Vector_4" d="M9.16666 13.3333C9.16666 12.8731 9.53975 12.5 10 12.5C10.4602 12.5 10.8333 12.8731 10.8333 13.3333C10.8333 13.7936 10.4602 14.1667 10 14.1667C9.53975 14.1667 9.16666 13.7936 9.16666 13.3333Z" fill="#9B9B9B"/>
<path id="Vector_5" d="M12.5 9.16667C12.5 8.70642 12.8731 8.33333 13.3333 8.33333C13.7936 8.33333 14.1667 8.70642 14.1667 9.16667C14.1667 9.62692 13.7936 10 13.3333 10C12.8731 10 12.5 9.62692 12.5 9.16667Z" fill="#9B9B9B"/>
<path id="Vector_6" d="M12.5 13.3333C12.5 12.8731 12.8731 12.5 13.3333 12.5C13.7936 12.5 14.1667 12.8731 14.1667 13.3333C14.1667 13.7936 13.7936 14.1667 13.3333 14.1667C12.8731 14.1667 12.5 13.7936 12.5 13.3333Z" fill="#9B9B9B"/>
<path id="Vector_7" fill-rule="evenodd" clip-rule="evenodd" d="M6.66666 1.66667C7.1269 1.66667 7.5 2.03977 7.5 2.5V3.33333H12.5V2.5C12.5 2.03977 12.8731 1.66667 13.3333 1.66667C13.7936 1.66667 14.1667 2.03977 14.1667 2.5V3.33333C16.4678 3.33333 18.3333 5.19882 18.3333 7.5V14.1667C18.3333 16.4678 16.4678 18.3333 14.1667 18.3333H5.83333C3.53215 18.3333 1.66666 16.4678 1.66666 14.1667V7.5C1.66666 5.19882 3.53215 3.33333 5.83333 3.33333V2.5C5.83333 2.03977 6.20643 1.66667 6.66666 1.66667ZM5.83333 5C4.45262 5 3.33333 6.11929 3.33333 7.5V14.1667C3.33333 15.5474 4.45262 16.6667 5.83333 16.6667H14.1667C15.5474 16.6667 16.6667 15.5474 16.6667 14.1667V7.5C16.6667 6.11929 15.5474 5 14.1667 5C14.1667 5.46024 13.7936 5.83333 13.3333 5.83333C12.8731 5.83333 12.5 5.46024 12.5 5H7.5C7.5 5.46024 7.1269 5.83333 6.66666 5.83333C6.20643 5.83333 5.83333 5.46024 5.83333 5Z" fill="#9B9B9B"/>
</g>
</g>
</svg>
