<svg width="25" height="25" viewBox="0 0 25 25" fill="none" xmlns="http://www.w3.org/2000/svg">
<path d="M20.3125 3.90625H4.6875C3.39308 3.90625 2.34375 4.95558 2.34375 6.25V20.3125C2.34375 21.6069 3.39308 22.6562 4.6875 22.6562H20.3125C21.6069 22.6562 22.6562 21.6069 22.6562 20.3125V6.25C22.6562 4.95558 21.6069 3.90625 20.3125 3.90625Z"  stroke-width="1.5" stroke-linejoin="round"/>
<path d="M14.4531 12.5C15.1003 12.5 15.625 11.9753 15.625 11.3281C15.625 10.6809 15.1003 10.1562 14.4531 10.1562C13.8059 10.1562 13.2812 10.6809 13.2812 11.3281C13.2812 11.9753 13.8059 12.5 14.4531 12.5Z" fill="black"/>
<path d="M18.3594 12.5C19.0066 12.5 19.5312 11.9753 19.5312 11.3281C19.5312 10.6809 19.0066 10.1562 18.3594 10.1562C17.7122 10.1562 17.1875 10.6809 17.1875 11.3281C17.1875 11.9753 17.7122 12.5 18.3594 12.5Z" fill="black"/>
<path d="M14.4531 16.4062C15.1003 16.4062 15.625 15.8816 15.625 15.2344C15.625 14.5872 15.1003 14.0625 14.4531 14.0625C13.8059 14.0625 13.2812 14.5872 13.2812 15.2344C13.2812 15.8816 13.8059 16.4062 14.4531 16.4062Z" fill="black"/>
<path d="M18.3594 16.4062C19.0066 16.4062 19.5312 15.8816 19.5312 15.2344C19.5312 14.5872 19.0066 14.0625 18.3594 14.0625C17.7122 14.0625 17.1875 14.5872 17.1875 15.2344C17.1875 15.8816 17.7122 16.4062 18.3594 16.4062Z" fill="black"/>
<path d="M6.64062 16.4062C7.28783 16.4062 7.8125 15.8816 7.8125 15.2344C7.8125 14.5872 7.28783 14.0625 6.64062 14.0625C5.99342 14.0625 5.46875 14.5872 5.46875 15.2344C5.46875 15.8816 5.99342 16.4062 6.64062 16.4062Z" fill="black"/>
<path d="M10.5469 16.4062C11.1941 16.4062 11.7188 15.8816 11.7188 15.2344C11.7188 14.5872 11.1941 14.0625 10.5469 14.0625C9.89967 14.0625 9.375 14.5872 9.375 15.2344C9.375 15.8816 9.89967 16.4062 10.5469 16.4062Z" fill="black"/>
<path d="M6.64062 20.3125C7.28783 20.3125 7.8125 19.7878 7.8125 19.1406C7.8125 18.4934 7.28783 17.9688 6.64062 17.9688C5.99342 17.9688 5.46875 18.4934 5.46875 19.1406C5.46875 19.7878 5.99342 20.3125 6.64062 20.3125Z" fill="black"/>
<path d="M10.5469 20.3125C11.1941 20.3125 11.7188 19.7878 11.7188 19.1406C11.7188 18.4934 11.1941 17.9688 10.5469 17.9688C9.89967 17.9688 9.375 18.4934 9.375 19.1406C9.375 19.7878 9.89967 20.3125 10.5469 20.3125Z" fill="black"/>
<path d="M14.4531 20.3125C15.1003 20.3125 15.625 19.7878 15.625 19.1406C15.625 18.4934 15.1003 17.9688 14.4531 17.9688C13.8059 17.9688 13.2812 18.4934 13.2812 19.1406C13.2812 19.7878 13.8059 20.3125 14.4531 20.3125Z" fill="black"/>
<path d="M6.25 2.34375V3.90625"  stroke-width="1.5" stroke-linecap="round" stroke-linejoin="round"/>
<path d="M18.75 2.34375V3.90625"  stroke-width="1.5" stroke-linecap="round" stroke-linejoin="round"/>
<path d="M22.6562 7.8125H2.34375"  stroke-width="1.5" stroke-linejoin="round"/>
</svg>
