<svg width="24" height="25" viewBox="0 0 24 25" fill="none" xmlns="http://www.w3.org/2000/svg">
<path d="M6 15.625L8 17.7084L12.5 13.0209M8 8.33337V5.41671C8 4.24994 8 3.66654 8.21799 3.22089C8.40973 2.82888 8.71569 2.51018 9.09202 2.31045C9.51984 2.08337 10.0799 2.08337 11.2 2.08337H18.8C19.9201 2.08337 20.4802 2.08337 20.908 2.31045C21.2843 2.51018 21.5903 2.82888 21.782 3.22089C22 3.66654 22 4.24994 22 5.41671V13.3334C22 14.5001 22 15.0836 21.782 15.5292C21.5903 15.9212 21.2843 16.2399 20.908 16.4396C20.4802 16.6667 19.9201 16.6667 18.8 16.6667H16M5.2 22.9167H12.8C13.9201 22.9167 14.4802 22.9167 14.908 22.6896C15.2843 22.4899 15.5903 22.1712 15.782 21.7792C16 21.3336 16 20.7501 16 19.5834V11.6667C16 10.4999 16 9.91654 15.782 9.4709C15.5903 9.07889 15.2843 8.76018 14.908 8.56045C14.4802 8.33337 13.9201 8.33337 12.8 8.33337H5.2C4.0799 8.33337 3.51984 8.33337 3.09202 8.56045C2.71569 8.76018 2.40973 9.07889 2.21799 9.4709C2 9.91654 2 10.4999 2 11.6667V19.5834C2 20.7501 2 21.3336 2.21799 21.7792C2.40973 22.1712 2.71569 22.4899 3.09202 22.6896C3.51984 22.9167 4.07989 22.9167 5.2 22.9167Z" stroke-width="1.5" stroke-linecap="round" stroke-linejoin="round"/>
</svg>
