<svg width="19" height="4" viewBox="0 0 19 4" fill="none" xmlns="http://www.w3.org/2000/svg">
<path d="M9.375 0C9.74584 0 10.1084 0.109967 10.4167 0.315995C10.725 0.522022 10.9654 0.814857 11.1073 1.15747C11.2492 1.50008 11.2863 1.87708 11.214 2.24079C11.1416 2.60451 10.963 2.9386 10.7008 3.20083C10.4386 3.46305 10.1045 3.64163 9.7408 3.71397C9.37708 3.78632 9.00008 3.74919 8.65747 3.60727C8.31486 3.46536 8.02202 3.22504 7.81599 2.91669C7.60997 2.60835 7.5 2.24584 7.5 1.875C7.5 1.37772 7.69754 0.900805 8.04917 0.549175C8.40081 0.197544 8.87772 0 9.375 0ZM0 1.875C0 2.24584 0.109967 2.60835 0.315994 2.91669C0.522022 3.22504 0.814857 3.46536 1.15747 3.60727C1.50008 3.74919 1.87708 3.78632 2.24079 3.71397C2.60451 3.64163 2.9386 3.46305 3.20083 3.20083C3.46305 2.9386 3.64162 2.60451 3.71397 2.24079C3.78632 1.87708 3.74919 1.50008 3.60727 1.15747C3.46536 0.814857 3.22504 0.522022 2.91669 0.315995C2.60835 0.109967 2.24584 0 1.875 0C1.37772 0 0.900805 0.197544 0.549175 0.549175C0.197544 0.900805 0 1.37772 0 1.875ZM15 1.875C15 2.24584 15.11 2.60835 15.316 2.91669C15.522 3.22504 15.8149 3.46536 16.1575 3.60727C16.5001 3.74919 16.8771 3.78632 17.2408 3.71397C17.6045 3.64163 17.9386 3.46305 18.2008 3.20083C18.463 2.9386 18.6416 2.60451 18.714 2.24079C18.7863 1.87708 18.7492 1.50008 18.6073 1.15747C18.4654 0.814857 18.225 0.522022 17.9167 0.315995C17.6084 0.109967 17.2458 0 16.875 0C16.3777 0 15.9008 0.197544 15.5492 0.549175C15.1975 0.900805 15 1.37772 15 1.875Z" />
</svg>
