<svg width="25" height="25" viewBox="0 0 25 25" fill="none" xmlns="http://www.w3.org/2000/svg">
<path d="M9.375 10.4167L12.7689 12.9621C13.2048 13.289 13.819 13.2247 14.1778 12.8147L20.8333 5.20837"  stroke-width="1.5" stroke-linecap="round"/>
<path d="M21.875 12.5C21.875 14.4589 21.2615 16.3684 20.1204 17.9607C18.9795 19.553 17.3683 20.7478 15.5135 21.3775C13.6586 22.0071 11.6531 22.0399 9.77858 21.4714C7.90408 20.9027 6.25478 19.7611 5.06231 18.2072C3.86984 16.6531 3.19412 14.7646 3.13002 12.8068C3.06593 10.849 3.6167 8.92025 4.70497 7.29153C5.79325 5.66281 7.36437 4.41589 9.19766 3.72589C11.0309 3.03588 13.0344 2.93746 14.9265 3.44445"  stroke-width="1.5" stroke-linecap="round"/>
</svg>
