<svg width="30" height="30" viewBox="0 0 30 30" fill="none" xmlns="http://www.w3.org/2000/svg">
<g clip-path="url(#clip0_153_2905)">
<path fill-rule="evenodd" clip-rule="evenodd" d="M6.45457 15C6.45457 14.0473 6.61279 13.134 6.89519 12.2773L1.95218 8.50266C0.988815 10.4587 0.446045 12.6627 0.446045 15C0.446045 17.3353 0.988147 19.538 1.95018 21.4927L6.89052 17.7107C6.61079 16.858 6.45457 15.948 6.45457 15Z" fill="#FBBC05"/>
<path fill-rule="evenodd" clip-rule="evenodd" d="M15.1335 6.33333C17.2031 6.33333 19.0724 7.06666 20.5412 8.26666L24.8139 3.99999C22.2102 1.73333 18.8721 0.333328 15.1335 0.333328C9.32928 0.333328 4.34087 3.65266 1.95215 8.50266L6.89516 12.2773C8.03411 8.82 11.2807 6.33333 15.1335 6.33333Z" fill="#EB4335"/>
<path fill-rule="evenodd" clip-rule="evenodd" d="M15.1335 23.6667C11.2807 23.6667 8.03411 21.18 6.89516 17.7227L1.95215 21.4967C4.34087 26.3473 9.32928 29.6667 15.1335 29.6667C18.7159 29.6667 22.1361 28.3947 24.7031 26.0113L20.0111 22.384C18.6872 23.218 17.0202 23.6667 15.1335 23.6667Z" fill="#34A853"/>
<path fill-rule="evenodd" clip-rule="evenodd" d="M29.1534 15C29.1534 14.1333 29.0199 13.2 28.8196 12.3333H15.1335V18H23.0114C22.6175 19.932 21.5453 21.4173 20.0111 22.384L24.7031 26.0113C27.3996 23.5087 29.1534 19.7807 29.1534 15Z" fill="#4285F4"/>
</g>
<defs>
<clipPath id="clip0_153_2905">
<rect width="30" height="30" fill="white"/>
</clipPath>
</defs>
</svg>
