<svg width="25" height="25" viewBox="0 0 25 25" fill="none" xmlns="http://www.w3.org/2000/svg">
<path d="M13.9146 21.875C16.2348 21.875 17.395 21.875 18.3634 21.32C19.3319 20.7651 19.9467 19.7479 21.1765 17.7135L21.8856 16.5403C22.9202 14.8288 23.4375 13.9731 23.4375 13.0208C23.4375 12.0685 22.9202 11.2128 21.8856 9.50127L21.1765 8.32809C19.9467 6.29374 19.3319 5.27656 18.3634 4.72159C17.395 4.16663 16.2348 4.16663 13.9146 4.16663H11.1677C10.0861 4.16663 9.1493 4.16663 8.33333 4.19157M3.85827 5.46329C2.60416 6.75995 2.60416 8.8469 2.60416 13.0208C2.60416 17.1946 2.60416 19.2816 3.85827 20.5783C4.89832 21.6536 6.46406 21.8371 9.2708 21.8685"  stroke-width="1.5" stroke-linecap="round"/>
<path d="M7.8125 8.32825V17.7083"  stroke-width="1.5" stroke-linecap="round"/>
</svg>
