<svg width="30" height="30" viewBox="0 0 30 30" fill="none" xmlns="http://www.w3.org/2000/svg">
<path d="M18.6816 1.5625C16.9723 1.56248 15.5943 1.56245 14.5106 1.70815C13.3855 1.85943 12.4381 2.18304 11.6857 2.93544C11.0295 3.5916 10.698 4.39795 10.524 5.34544C10.3548 6.26614 10.3225 7.39288 10.315 8.74479C10.3121 9.26254 10.7295 9.6846 11.2472 9.68749C11.765 9.69038 12.1871 9.27298 12.1899 8.75523C12.1975 7.38835 12.233 6.4195 12.3681 5.68419C12.4982 4.97568 12.7073 4.56558 13.0115 4.26126C13.3575 3.91531 13.8433 3.68975 14.7604 3.56644C15.7046 3.43949 16.956 3.4375 18.7503 3.4375H20.0003C21.7945 3.4375 23.0459 3.43949 23.9901 3.56644C24.9074 3.68975 25.393 3.91531 25.739 4.26126C26.085 4.60721 26.3105 5.09294 26.4339 6.01015C26.5608 6.95434 26.5628 8.20574 26.5628 10V20C26.5628 21.7943 26.5608 23.0456 26.4339 23.9899C26.3105 24.9071 26.085 25.3927 25.739 25.7388C25.393 26.0847 24.9074 26.3102 23.9901 26.4336C23.0459 26.5605 21.7945 26.5625 20.0003 26.5625H18.7503C16.956 26.5625 15.7046 26.5605 14.7604 26.4336C13.8433 26.3102 13.3575 26.0847 13.0115 25.7388C12.7073 25.4344 12.4982 25.0244 12.3681 24.3159C12.233 23.5805 12.1975 22.6116 12.1899 21.2448C12.1871 20.727 11.765 20.3096 11.2472 20.3125C10.7295 20.3154 10.3121 20.7375 10.315 21.2553C10.3225 22.6071 10.3548 23.7339 10.524 24.6545C10.698 25.602 11.0295 26.4084 11.6857 27.0646C12.4381 27.817 13.3855 28.1406 14.5106 28.2919C15.5943 28.4375 16.9723 28.4375 18.6816 28.4375H20.0689C21.7784 28.4375 23.1563 28.4375 24.24 28.2919C25.3651 28.1406 26.3124 27.817 27.0649 27.0646C27.8173 26.3121 28.1409 25.3649 28.2921 24.2397C28.4379 23.156 28.4378 21.7781 28.4378 20.0686V9.93141C28.4378 8.22193 28.4379 6.84403 28.2921 5.76031C28.1409 4.63518 27.8173 3.68784 27.0649 2.93544C26.3124 2.18304 25.3651 1.85943 24.24 1.70815C23.1563 1.56245 21.7784 1.56248 20.0689 1.5625H18.6816Z" />
<path d="M2.50122 14.0613C1.98345 14.0613 1.56372 14.481 1.56372 14.9988C1.56372 15.5165 1.98345 15.9363 2.50122 15.9363H17.4669L15.0161 18.037C14.623 18.3739 14.5775 18.9658 14.9144 19.3589C15.2514 19.752 15.8432 19.7975 16.2364 19.4606L20.6114 15.7106C20.8191 15.5325 20.9387 15.2725 20.9387 14.9988C20.9387 14.7251 20.8191 14.4651 20.6114 14.287L16.2364 10.537C15.8432 10.2 15.2514 10.2456 14.9144 10.6387C14.5775 11.0318 14.623 11.6236 15.0161 11.9606L17.4669 14.0613H2.50122Z" />
</svg>
