<svg width="25" height="25" viewBox="0 0 25 25" fill="none" xmlns="http://www.w3.org/2000/svg">
<path d="M12.5009 5.20833C13.9928 5.20833 15.4235 5.73511 16.4784 6.6728C17.5333 7.61048 18.1259 8.88225 18.1259 10.2083C18.1259 12.2595 18.5895 13.7954 19.1908 14.9249C19.9589 16.368 20.343 17.0896 20.3216 17.2544C20.2967 17.4468 20.265 17.4997 20.1068 17.612C19.9713 17.7083 19.2972 17.7083 17.949 17.7083H7.05273C5.70452 17.7083 5.03043 17.7083 4.89492 17.612C4.73684 17.4997 4.70508 17.4468 4.68017 17.2544C4.6588 17.0896 5.04287 16.368 5.81103 14.9249C6.41225 13.7954 6.87588 12.2595 6.87588 10.2083C6.87588 8.88225 7.46852 7.61048 8.52341 6.6728C9.5783 5.73511 11.009 5.20833 12.5009 5.20833ZM12.5009 5.20833V3.125M9.74463 20.8333C10.4803 21.4826 11.4466 21.8767 12.5051 21.8767C13.5634 21.8767 14.5297 21.4826 15.2655 20.8333"  stroke-width="1.5" stroke-linecap="round" stroke-linejoin="round"/>
</svg>
