<svg width="25" height="25" viewBox="0 0 25 25" fill="none" xmlns="http://www.w3.org/2000/svg">
<path d="M5.35986 16.067L7.14593 17.853"  stroke-width="1.5" stroke-miterlimit="10" stroke-linecap="round" stroke-linejoin="round"/>
<path d="M7.59241 13.8346L9.37847 15.6207"  stroke-width="1.5" stroke-miterlimit="10" stroke-linecap="round" stroke-linejoin="round"/>
<path d="M19.9074 14.6652C18.0677 16.4959 15.4332 17.0585 13.1203 16.3352L8.02113 21.4254C7.71749 21.738 7.11916 21.9255 6.6905 21.863L4.7437 21.5951C4.10072 21.5058 3.50239 20.8985 3.40415 20.2555L3.13624 18.3087C3.07373 17.8801 3.27913 17.2818 3.57382 16.9781L8.66411 11.8879C7.94968 9.56599 8.50336 6.93154 10.343 5.10083C12.9774 2.46639 17.2551 2.46639 19.8984 5.10083C22.5418 7.73527 22.5418 12.0307 19.9074 14.6652Z"  stroke-width="1.5" stroke-miterlimit="10" stroke-linecap="round" stroke-linejoin="round"/>
<path d="M15.1831 11.6023C16.1696 11.6023 16.9692 10.8027 16.9692 9.81625C16.9692 8.82984 16.1696 8.03019 15.1831 8.03019C14.1968 8.03019 13.3971 8.82984 13.3971 9.81625C13.3971 10.8027 14.1968 11.6023 15.1831 11.6023Z"  stroke-width="1.5" stroke-linecap="round" stroke-linejoin="round"/>
</svg>
