<svg width="30" height="22" viewBox="0 0 30 22" fill="none" xmlns="http://www.w3.org/2000/svg">
<path d="M24.125 5.5C23.9419 8.04187 22.0562 10 20 10C17.9437 10 16.055 8.0425 15.875 5.5C15.6875 2.85562 17.5231 1 20 1C22.4769 1 24.3125 2.90375 24.125 5.5Z"  stroke-width="1.5" stroke-linecap="round" stroke-linejoin="round"/>
<path d="M20 14C15.9269 14 12.01 16.0231 11.0287 19.9631C10.8987 20.4844 11.2256 21 11.7612 21H28.2394C28.775 21 29.1 20.4844 28.9719 19.9631C27.9906 15.96 24.0737 14 20 14Z"  stroke-width="1.5" stroke-miterlimit="10"/>
<path d="M11.5 6.62125C11.3537 8.65125 9.82999 10.25 8.18749 10.25C6.54499 10.25 5.01874 8.65188 4.87499 6.62125C4.72561 4.50938 6.20874 3 8.18749 3C10.1662 3 11.6494 4.54813 11.5 6.62125Z"  stroke-width="1.5" stroke-linecap="round" stroke-linejoin="round"/>
<path d="M11.875 14.125C10.7469 13.6082 9.50438 13.4094 8.1875 13.4094C4.9375 13.4094 1.80625 15.025 1.02188 18.1719C0.918751 18.5882 1.18 19 1.6075 19H8.625"  stroke-width="1.5" stroke-miterlimit="10" stroke-linecap="round"/>
</svg>
