<svg width="20" height="20" viewBox="0 0 20 20" fill="none" xmlns="http://www.w3.org/2000/svg">
<g id="Frame" clip-path="url(#clip0_12_63)">
<g id="SVGRepo_iconCarrier">
<path id="Vector" d="M14.5706 16.3138L10.6356 14.1338C12.0981 12.9831 12.4956 10.7219 12.4956 9.45376V6.81438C12.4956 5.06688 10.1737 3.12063 7.84125 3.12063C5.51 3.12063 3.12625 5.06688 3.12625 6.81438V9.45376C3.12625 10.6069 3.61375 12.9388 5.09125 14.1238L1.055 16.3131C1.055 16.3131 0 16.7831 0 17.3688V18.9525C0 19.5356 0.473125 20.0081 1.055 20.0081H14.5706C15.1525 20.0081 15.6256 19.535 15.6256 18.9525V17.3688C15.6256 16.7475 14.57 16.3131 14.57 16.3131L14.5706 16.3138ZM14.3756 18.7594H1.25V17.6419C1.33938 17.5763 1.465 17.5006 1.56375 17.4556C1.59313 17.4425 1.6225 17.4281 1.65062 17.4119L5.6875 15.2225C6.05563 15.0225 6.29938 14.6525 6.33687 14.2356C6.37437 13.8188 6.2 13.4106 5.87375 13.1488C4.82562 12.3081 4.37625 10.4475 4.37625 9.45438V6.81501C4.37625 5.91688 6.06875 4.37125 7.84125 4.37125C9.64687 4.37125 11.2456 5.89626 11.2456 6.81501V9.45438C11.2456 10.4331 10.9419 12.3025 9.86312 13.1513C9.53312 13.4113 9.355 13.82 9.39 14.2381C9.425 14.6563 9.66875 15.03 10.0369 15.2313L13.9719 17.4113C14.0062 17.43 14.0506 17.4506 14.0869 17.4669C14.1794 17.5063 14.2925 17.5713 14.3756 17.6288V18.7594ZM18.945 13.2019L14.9513 11.0219C16.4137 9.87125 16.87 7.61001 16.87 6.34188V3.7025C16.87 1.955 14.49 -0.0106201 12.1575 -0.0106201C10.6419 -0.0106201 9.0925 0.813755 8.19062 1.86875C8.705 1.90063 9.27188 1.90125 9.76188 2.0575C10.4206 1.54438 11.2531 1.24 12.1575 1.24C13.9631 1.24 15.62 2.78376 15.62 3.70313V6.3425C15.62 7.32125 15.2575 9.19063 14.1794 10.0394C13.8488 10.2994 13.6713 10.7081 13.7063 11.1263C13.7413 11.545 13.9844 11.9181 14.3531 12.1194L18.3469 14.2994C18.3813 14.3181 18.4256 14.3388 18.4619 14.355C18.5544 14.3944 18.6675 14.4594 18.7506 14.5169V15.6288H16.2275C16.6088 15.9163 16.7238 16.3275 16.8719 16.8788H18.9462C19.5281 16.8788 20.0012 16.4056 20.0012 15.8231V14.2588C20.0006 13.6369 18.945 13.2019 18.945 13.2019Z" fill="#FCBA77"/>
</g>
</g>
<defs>
<clipPath id="clip0_12_63">
<rect width="20" height="20" fill="white"/>
</clipPath>
</defs>
</svg>
