<svg width="10" height="10" viewBox="0 0 10 10" fill="none" xmlns="http://www.w3.org/2000/svg">
<path d="M5.83335 5.41667C6.29359 5.41667 6.66669 5.04357 6.66669 4.58333C6.66669 4.1231 6.29359 3.75 5.83335 3.75C5.37312 3.75 5.00002 4.1231 5.00002 4.58333C5.00002 5.04357 5.37312 5.41667 5.83335 5.41667Z" stroke="#9B9B9B"/>
<path d="M7.50001 8.75001C7.96025 8.75001 8.33334 8.37691 8.33334 7.91668C8.33334 7.45644 7.96025 7.08334 7.50001 7.08334C7.03977 7.08334 6.66668 7.45644 6.66668 7.91668C6.66668 8.37691 7.03977 8.75001 7.50001 8.75001Z" stroke="#9B9B9B"/>
<path d="M2.08334 1.66667V6.25C2.08334 7.03567 2.08334 7.4285 2.32742 7.67259C2.5715 7.91667 2.96434 7.91667 3.75001 7.91667H6.66668" stroke="#9B9B9B"/>
<path d="M2.08334 2.91667C2.08334 3.70235 2.08334 4.09518 2.32742 4.33925C2.5715 4.58334 2.96434 4.58334 3.75001 4.58334H5.00001" stroke="#9B9B9B"/>
</svg>
