<svg width="25" height="25" viewBox="0 0 25 25" fill="none" xmlns="http://www.w3.org/2000/svg">
<path d="M7.34354 7.34354H7.35396M10.9498 3.125H8.125C6.37483 3.125 5.49975 3.125 4.83128 3.4656C4.24327 3.76521 3.76521 4.24327 3.4656 4.83128C3.125 5.49975 3.125 6.37483 3.125 8.125V10.9498C3.125 11.7141 3.125 12.0963 3.21134 12.4559C3.2879 12.7748 3.41416 13.0796 3.5855 13.3593C3.77875 13.6746 4.04899 13.9448 4.58947 14.4853L9.4853 19.3811C10.7228 20.6186 11.3417 21.2375 12.0551 21.4693C12.6828 21.6732 13.3589 21.6732 13.9866 21.4693C14.7 21.2375 15.3189 20.6186 16.5564 19.3811L19.3811 16.5564C20.6186 15.3189 21.2375 14.7 21.4693 13.9866C21.6732 13.3589 21.6732 12.6828 21.4693 12.0551C21.2375 11.3417 20.6186 10.7228 19.3811 9.4853L14.4853 4.58947C13.9448 4.04899 13.6746 3.77875 13.3593 3.5855C13.0796 3.41416 12.7748 3.2879 12.4559 3.21134C12.0963 3.125 11.7141 3.125 10.9498 3.125ZM7.86438 7.34354C7.86438 7.6312 7.6312 7.86438 7.34354 7.86438C7.0559 7.86438 6.82271 7.6312 6.82271 7.34354C6.82271 7.0559 7.0559 6.82271 7.34354 6.82271C7.6312 6.82271 7.86438 7.0559 7.86438 7.34354Z"  stroke-width="1.5" stroke-linecap="round" stroke-linejoin="round"/>
</svg>
