<svg width="25" height="25" viewBox="0 0 25 25" fill="none" xmlns="http://www.w3.org/2000/svg">
<path d="M11.9792 10.9376L15.1042 14.0626M22.3957 6.77086L12.9883 16.1784C12.1253 17.0413 10.7263 17.0413 9.86329 16.1784C9.00034 15.3154 9.00034 13.9163 9.86329 13.0534L19.2707 3.64586C20.1337 2.78295 21.5327 2.78292 22.3957 3.6458C23.2588 4.50874 23.2588 5.9079 22.3957 6.77086ZM10.7706 18.4896C10.7706 20.3594 9.25497 21.8751 7.38525 21.8751H2.60417L2.82323 21.7656C3.90239 21.226 4.44038 19.9912 4.1007 18.8334C4.03381 18.6055 3.9937 18.3683 4.01852 18.132C4.19718 16.4305 5.63635 15.1042 7.38525 15.1042C9.25497 15.1042 10.7706 16.6199 10.7706 18.4896Z"  stroke-width="1.5" stroke-linecap="round" stroke-linejoin="round"/>
</svg>
