<svg width="32" height="32" viewBox="0 0 32 32" fill="none" xmlns="http://www.w3.org/2000/svg">
<path d="M25.3334 12H29.3334M25.3334 18.6667H29.3334M25.3334 25.3333H28M21.3334 8L20.2655 24.0172C20.172 25.42 20.1252 26.1215 19.8223 26.6533C19.5555 27.1216 19.1531 27.498 18.6682 27.7331C18.1174 28 17.4143 28 16.0083 28H10.6584C9.25238 28 8.54938 28 7.99854 27.7331C7.51358 27.498 7.11121 27.1216 6.84445 26.6533C6.54145 26.1215 6.49469 25.42 6.40117 24.0172L5.33335 8M2.66669 8H24M18.6667 8L18.3059 6.91743C17.9562 5.86833 17.7812 5.34379 17.457 4.95597C17.1706 4.61351 16.8028 4.34843 16.3874 4.18504C15.9168 4 15.364 4 14.2582 4H12.4086C11.3028 4 10.7498 4 10.2794 4.18504C9.86391 4.34843 9.49613 4.61351 9.20974 4.95597C8.88542 5.34379 8.71058 5.86833 8.36087 6.91743L8.00002 8M16 13.3333V22.6667M10.6667 13.3333L10.6666 22.6664"  stroke-width="1.5" stroke-linecap="round" stroke-linejoin="round"/>
</svg>
