<svg width="25" height="25" viewBox="0 0 25 25" fill="none" xmlns="http://www.w3.org/2000/svg">
<path d="M21.3543 6.25H3.64583"  stroke-width="1.5" stroke-linecap="round"/>
<path d="M9.89583 11.4584L10.4167 16.6667"  stroke-width="1.5" stroke-linecap="round"/>
<path d="M15.1042 11.4584L14.5833 16.6667"  stroke-width="1.5" stroke-linecap="round"/>
<path d="M6.77083 6.25C6.82904 6.25 6.85814 6.25 6.88453 6.24933C7.74228 6.22759 8.49897 5.6822 8.79085 4.87533C8.79983 4.85051 8.80903 4.82291 8.82743 4.76768L8.92857 4.46428C9.0149 4.20529 9.05807 4.07579 9.11532 3.96583C9.34375 3.52716 9.76639 3.22254 10.2548 3.14455C10.3772 3.125 10.5137 3.125 10.7868 3.125H14.2132C14.4862 3.125 14.6228 3.125 14.7452 3.14455C15.2336 3.22254 15.6562 3.52716 15.8847 3.96583C15.942 4.07579 15.9851 4.20529 16.0715 4.46428L16.1726 4.76768C16.1909 4.82283 16.2002 4.85053 16.2092 4.87533C16.501 5.6822 17.2577 6.22759 18.1155 6.24933C18.1419 6.25 18.1709 6.25 18.2292 6.25"  stroke-width="1.5"/>
<path d="M19.1391 16.0407C18.9547 18.8062 18.8625 20.189 17.9614 21.0319C17.0604 21.875 15.6746 21.875 12.9029 21.875H12.0973C9.32561 21.875 7.93978 21.875 7.03873 21.0319C6.13768 20.189 6.04549 18.8062 5.86112 16.0407L5.38202 8.85413M19.6181 8.85413L19.4098 11.9791"  stroke-width="1.5" stroke-linecap="round"/>
</svg>
