<svg width="25" height="25" viewBox="0 0 25 25" fill="none" xmlns="http://www.w3.org/2000/svg">
<path d="M21.3542 7.29163V13.5416C21.3542 17.47 21.3542 19.4342 20.1338 20.6545C18.9134 21.875 16.9492 21.875 13.0208 21.875H11.9792M3.64584 7.29163V13.5416C3.64584 17.47 3.64584 19.4342 4.86622 20.6545C5.60036 21.3887 6.60365 21.6812 8.14175 21.7978"  stroke-width="1.5" stroke-linecap="round"/>
<path d="M12.5 3.125H4.16667C3.18458 3.125 2.69353 3.125 2.38843 3.43009C2.08334 3.7352 2.08334 4.22624 2.08334 5.20833C2.08334 6.19043 2.08334 6.68147 2.38843 6.98657C2.69353 7.29167 3.18458 7.29167 4.16667 7.29167H20.8333C21.8154 7.29167 22.3065 7.29167 22.6116 6.98657C22.9167 6.68147 22.9167 6.19043 22.9167 5.20833C22.9167 4.22624 22.9167 3.7352 22.6116 3.43009C22.3065 3.125 21.8154 3.125 20.8333 3.125H16.6667"  stroke-width="1.5" stroke-linecap="round"/>
<path d="M12.5 7.29163V16.6666M12.5 16.6666L15.625 13.1944M12.5 16.6666L9.375 13.1944"  stroke-width="1.5" stroke-linecap="round" stroke-linejoin="round"/>
</svg>
