<svg width="25" height="25" viewBox="0 0 25 25" fill="none" xmlns="http://www.w3.org/2000/svg">
<path d="M3.12402 3.125L21.874 21.875M10.2535 10.3267C9.70906 10.8892 9.37402 11.6554 9.37402 12.5C9.37402 14.2259 10.7732 15.625 12.499 15.625C13.3558 15.625 14.132 15.2802 14.6965 14.7219M6.76985 6.92411C4.79142 8.22952 3.28447 10.1916 2.55945 12.5C3.88679 16.7261 7.83503 19.7917 12.4992 19.7917C14.571 19.7917 16.5015 19.1869 18.1238 18.1442M11.4573 5.25978C11.8 5.22576 12.1476 5.20833 12.4992 5.20833C17.1635 5.20833 21.1117 8.27386 22.439 12.5C22.1466 13.4312 21.7268 14.306 21.2002 15.1042"  stroke-width="1.5" stroke-linecap="round" stroke-linejoin="round"/>
</svg>
