<svg width="100" height="100" viewBox="0 0 100 100" fill="none" xmlns="http://www.w3.org/2000/svg">
<rect width="100" height="100" rx="10" fill="#0860FB"/>
<g clip-path="url(#clip0_167_492)">
<path d="M73.9588 82.0822C68.5162 86.1536 61.9616 88.8909 54.7265 89.7473C32.7885 92.3441 12.8987 76.6648 10.3019 54.7266C7.70512 32.7885 23.3846 12.8987 45.3227 10.3019C67.2609 7.70514 87.1505 23.3846 89.7473 45.3227C90.6037 52.5578 89.4723 59.5703 86.7841 65.8131" stroke="white" stroke-width="5" stroke-linecap="round"/>
<path d="M47.95 37.5L70.45 37.5016M47.95 51L70.45 51.0016M47.95 64.5L70.45 64.5016M29.95 50.8749L33.4115 54.375L41.2 46.5M29.95 37.375L33.4115 40.875L41.2 33M33.325 64.5H33.3475M34.45 64.5C34.45 65.1212 33.9463 65.625 33.325 65.625C32.7036 65.625 32.2 65.1212 32.2 64.5C32.2 63.8788 32.7036 63.375 33.325 63.375C33.9463 63.375 34.45 63.8788 34.45 64.5Z" stroke="white" stroke-width="5" stroke-linecap="round" stroke-linejoin="round"/>
<g clip-path="url(#clip1_167_492)">
<path d="M91.97 72.6129L85.2569 75.1541C84.9087 75.2932 84.5358 75.3593 84.161 75.3483C83.7862 75.3374 83.4175 75.2496 83.078 75.0904C82.7384 74.9313 82.4353 74.7043 82.1871 74.4232C81.9389 74.1421 81.7509 73.8131 81.635 73.4565L79.2934 66.6713" stroke="white" stroke-width="5" stroke-linecap="round" stroke-linejoin="round"/>
</g>
</g>
<defs>
<clipPath id="clip0_167_492">
<rect x="2" y="2" width="96" height="96" rx="10" fill="white"/>
</clipPath>
<clipPath id="clip1_167_492">
<rect width="24" height="24" fill="white" transform="translate(100.317 66.5857) rotate(115.113)"/>
</clipPath>
</defs>
</svg>
