<svg width="40" height="40" viewBox="0 0 40 40" fill="none" xmlns="http://www.w3.org/2000/svg">
<path d="M36.915 13.4243C36.6103 12.5996 36.2433 11.8021 35.8218 11.041C35.0237 9.59944 34.0301 8.28111 32.8734 7.12665C32.8452 7.09841 32.8219 7.07456 32.7936 7.04632H32.7917C32.7589 7.01378 32.7277 6.98234 32.6929 6.95035L32.6905 6.94871C32.5915 6.84993 32.489 6.75176 32.3859 6.66002C29.2673 3.76771 25.085 2.00012 20.5 2.00012C17.8375 2.00012 15.3107 2.59636 13.0507 3.66141C12.8955 3.73462 12.7409 3.81002 12.589 3.88768C10.9313 4.72912 9.4255 5.8261 8.12639 7.12665C6.22646 9.02439 4.76212 11.3616 3.89326 13.9702C3.84958 14.1015 3.80644 14.2349 3.76604 14.3678L3.76085 14.3825C3.73316 14.4725 3.70664 14.5659 3.68059 14.6581C3.61606 14.879 3.55713 15.0998 3.5034 15.3249C3.48221 15.4025 3.46492 15.4807 3.44748 15.5599C3.15463 16.826 3 18.1455 3 19.5002C3 24.3282 4.9607 28.7103 8.12639 31.8738C9.90785 33.6544 12.0742 35.0547 14.489 35.9401C14.5641 35.9678 14.6409 35.9954 14.7187 36.0209C15.1801 36.1836 15.6521 36.3263 16.1309 36.4495C16.2145 36.4707 16.2996 36.4918 16.3851 36.5103C17.7054 36.8309 19.0845 37.0001 20.5 37.0001C25.3285 37.0001 29.7098 35.04 32.8733 31.8737C33.4538 31.2949 33.9917 30.6758 34.4838 30.0193C36.6901 27.0919 38.0003 23.4449 38.0003 19.5002C38.0003 17.3653 37.6165 15.3178 36.915 13.4243ZM9.47978 30.5212C6.65808 27.6963 4.91511 23.8068 4.91511 19.5002C4.91511 18.7042 4.97458 17.924 5.08956 17.1618C5.62045 17.533 6.58883 18.0522 6.60107 18.0549C6.63737 18.0663 6.67914 18.0723 6.72965 18.0723C6.80806 18.0723 6.9022 18.0582 6.99954 18.0424C7.10235 18.0273 7.20708 18.0121 7.29034 18.0121C7.31639 18.0121 7.34107 18.0132 7.36062 18.0169C7.39664 18.0332 7.45584 18.1699 7.48702 18.2432C7.55162 18.3908 7.61779 18.5437 7.75396 18.6105C7.88036 18.6745 8.1538 18.7077 8.55446 18.7505C8.68714 18.7652 8.82277 18.7814 8.89243 18.7928C8.91848 18.8405 8.95019 18.9572 8.97111 19.0386C9.03216 19.2675 9.09266 19.5014 9.26704 19.6056C9.41169 19.694 9.88338 20.1427 10.1466 20.4069C10.1813 20.4405 10.2249 20.4579 10.2702 20.4579C10.2993 20.4579 10.331 20.4508 10.357 20.4335C10.378 20.4215 10.8374 20.1524 10.9978 20.0521C11.0311 20.0629 11.0903 20.1004 11.144 20.1465C11.1524 20.3987 11.1844 21.2332 11.186 21.4019C11.1564 21.5067 10.8062 21.8706 10.4199 22.1972C10.3817 22.2292 10.3584 22.2743 10.357 22.3225C10.3554 22.3703 10.3136 23.4721 10.357 23.9149C10.4026 24.3636 11.1388 25.2404 11.3368 25.4682C11.4207 25.6956 11.649 26.3005 11.7362 26.4302C11.8232 26.5609 12.7062 27.2233 13.274 27.6427V30.2534C13.274 30.5458 13.3882 30.7368 13.4793 30.8919C13.5352 30.9842 13.5786 31.0569 13.5786 31.1231V32.9514C13.5786 33.1891 13.6478 33.3839 13.7437 33.5488C12.1542 32.7825 10.7157 31.755 9.47978 30.5212ZM33.9953 13.0576C33.6902 12.8406 33.2116 12.7532 33.2116 12.7532L32.863 12.7087C32.6891 12.3609 32.7762 11.5776 32.167 11.7511C31.5571 11.9258 29.5547 12.2735 29.1193 12.3609C28.6844 12.4477 28.1617 13.1438 27.8137 13.6663C27.4651 14.1887 26.5076 15.8434 26.3334 16.1044C26.1595 16.3654 26.0721 18.0202 26.0721 18.4547C26.0721 18.8909 27.9881 20.7193 28.5971 20.806C29.2066 20.8929 30.8605 20.4577 31.2962 20.3709C31.7316 20.283 31.9925 20.8929 32.3409 20.8929C32.6892 20.8929 33.1246 21.067 32.7762 21.5905C32.4279 22.1114 32.4279 22.3728 32.7762 22.7212C33.1246 23.0701 33.8209 24.3759 33.3855 25.4209C32.9501 26.4652 33.299 26.9872 33.5599 27.4228C33.6098 27.5063 33.6625 27.6224 33.7184 27.7591C33.091 28.7596 32.3528 29.6862 31.5206 30.5212C28.6959 33.3418 24.8064 35.085 20.5 35.085C19.0615 35.085 17.6707 34.8891 16.3488 34.5267C16.3543 34.505 16.3594 34.4806 16.3632 34.4556C16.3851 34.2924 16.3176 34.1708 16.2479 34.0851C16.3456 34.0384 16.4237 33.9636 16.4793 33.8637C16.5634 33.7107 16.5772 33.523 16.5634 33.3749L16.648 33.3765C16.8604 33.3765 17.1046 33.3569 17.2925 33.223C17.6004 33.0038 17.6061 32.5405 17.5483 32.2187C17.5708 32.2285 17.5938 32.2393 17.6148 32.2458C17.6387 32.2556 17.665 32.2578 17.6915 32.2578C17.9702 32.2578 18.2783 31.757 18.3613 31.4255C18.393 31.304 18.5095 31.0349 18.6231 30.7728C18.8893 30.1548 19.0493 29.7664 19.0184 29.5733C19.023 29.4517 19.5005 29.0714 19.9249 28.9862C20.4285 28.8859 20.6077 28.7009 20.7976 28.0818C20.9788 27.4942 21.0678 26.5155 21.0209 26.0972C21.0071 25.96 21.304 25.5422 21.5031 25.2655C21.8268 24.8087 22.024 24.5168 22.024 24.2889C22.024 23.7627 21.5814 23.4078 21.2487 23.186C20.9181 22.9652 20.3381 22.9142 19.9532 22.8821C19.8455 22.8729 19.7513 22.8648 19.7076 22.8556C19.6677 22.8474 19.598 22.7715 19.5424 22.7129C19.4225 22.5837 19.2581 22.408 18.9969 22.3749C18.9673 22.3711 18.9364 22.37 18.9068 22.37C18.7409 22.37 18.5935 22.4221 18.449 22.4725C18.3201 22.5192 18.198 22.5637 18.0765 22.5637C18.0393 22.5637 18.0049 22.5594 17.9702 22.5507C17.9056 22.5371 17.8809 22.5192 17.876 22.5192C17.8773 22.49 17.9333 22.3917 18.0704 22.3005C18.2031 22.2121 18.3287 22.0168 18.1841 21.5741C18.0814 21.2551 17.8912 20.9534 17.8153 20.8406C17.5418 20.4299 17.0435 20.4299 16.8799 20.4299C16.7301 20.4299 16.5837 20.4446 16.4336 20.4575L16.4011 20.4586C16.2494 20.4586 16.1607 20.3252 15.9882 20.0431C15.8905 19.883 15.7807 19.7039 15.6282 19.5195C15.2967 19.1223 14.834 19.0697 14.423 19.0697C14.3687 19.0697 14.3166 19.0697 14.2659 19.0719C14.2225 19.0719 14.1804 19.073 14.1408 19.073C14.0852 19.073 14.0345 19.0719 13.9906 19.0659C13.8395 19.0469 13.6146 18.9319 13.4163 18.83C13.1988 18.7182 12.9931 18.6118 12.819 18.5874L12.7756 18.5842C12.5265 18.5842 12.2447 18.8734 11.8424 19.3118C11.7426 19.4202 11.614 19.5607 11.5459 19.6199C11.5324 19.6041 11.5147 19.5841 11.5011 19.5667C11.4279 19.4734 11.3284 19.3508 11.1523 19.2911C11.1143 19.2786 11.0758 19.2716 11.0376 19.2716C10.9 19.2716 10.7975 19.3508 10.7082 19.4191C10.6287 19.4788 10.5606 19.5293 10.4784 19.5293C10.4301 19.5293 10.3742 19.5125 10.3097 19.4777C10.0696 19.3465 10.1493 18.8435 10.2123 18.4398C10.2421 18.2543 10.27 18.0796 10.27 17.9325C10.27 17.5984 10.0725 17.562 9.98954 17.562C9.90929 17.562 9.83088 17.5898 9.7403 17.6255C9.63776 17.6624 9.51915 17.7063 9.39549 17.7063C9.33985 17.7063 9.28776 17.6971 9.23731 17.6798C9.13805 17.6473 9.09409 17.6125 9.08732 17.5919C9.06292 17.5251 9.19178 17.3287 9.28557 17.1839C9.32905 17.1177 9.37457 17.0482 9.41798 16.9772C9.59948 16.675 9.69361 16.4521 9.59729 16.2833C9.53782 16.1813 9.42878 16.1281 9.27176 16.1281C9.21126 16.1281 9.14324 16.1351 9.06292 16.1509C9.00372 16.1617 8.94787 16.1671 8.89222 16.1671C8.81744 16.1671 8.75988 16.1568 8.70943 16.1481C8.66226 16.1406 8.62589 16.1335 8.59417 16.1335C8.35409 16.1335 8.32456 16.3721 8.31205 16.4753C8.26728 16.8377 8.04969 17.0222 7.66831 17.0222C7.64007 17.0222 7.613 17.0205 7.58313 17.0189C7.17728 16.9928 7.00453 16.7048 7.00453 16.0608C7.00453 15.7808 7.04849 15.7071 7.17871 15.4874C7.24324 15.3815 7.3235 15.2475 7.42091 15.0511C7.63659 14.6209 7.80749 14.5406 8.02501 14.4403C8.08927 14.4099 8.15571 14.379 8.22387 14.3399C8.27596 14.3084 8.31937 14.2949 8.35054 14.2949C8.37358 14.2949 8.3975 14.3041 8.43954 14.3182C8.49731 14.3399 8.57517 14.3675 8.67826 14.3675C8.70779 14.3675 8.73896 14.3665 8.77369 14.3616C9.09409 14.3068 9.16191 14.1191 9.22131 13.9536C9.22869 13.9363 9.23512 13.9178 9.24442 13.8945C9.26151 13.9004 9.27887 13.9048 9.29651 13.908C9.4376 13.9487 9.67276 14.0144 10.0522 14.0144C10.1775 14.0144 10.2682 14.016 10.3343 14.0199C10.2872 14.2586 10.2888 14.7186 10.7605 15.2563C10.9157 15.4321 11.0519 15.5139 11.1908 15.5139C11.637 15.5139 11.6748 14.762 11.6748 13.9254C11.6748 13.4198 11.8665 13.2814 12.434 12.8761L12.4709 12.849C12.7791 12.6304 12.9622 12.3705 13.1394 12.1193C13.3312 11.8486 13.5118 11.5925 13.8517 11.3809C14.1706 11.1796 14.6684 10.9588 15.1492 10.7428C15.7044 10.496 16.2283 10.2622 16.4743 10.0658C16.7564 9.83904 16.7005 9.48418 16.655 9.19611C16.5958 8.82601 16.6132 8.74958 16.7614 8.70556C17.0053 8.63665 17.2665 8.59605 17.5434 8.55257C17.94 8.49016 18.3513 8.42562 18.7731 8.26669C19.2109 8.10344 19.3123 7.86958 19.321 7.7008C19.337 7.41547 19.0909 7.18701 18.8756 7.07907C18.7814 7.03183 18.7706 6.80071 18.7638 6.59563C18.7535 6.3336 18.7432 6.06399 18.5739 5.89685C18.4784 5.79923 18.3561 5.75035 18.215 5.75035C18.0306 5.75035 17.8322 5.8317 17.6025 5.92884C17.4506 5.99119 17.2802 6.06064 17.0991 6.11273C17.0795 6.1182 17.0624 6.12196 17.0486 6.12196C16.9805 6.12196 16.9319 5.98039 16.8714 5.7818C16.7784 5.48826 16.6411 5.04884 16.1588 5.04884C16.1048 5.04884 16.0454 5.05377 15.983 5.06621C15.3683 5.18932 15.2237 5.84852 15.1196 6.33025C15.0826 6.50334 15.0254 6.76591 14.9747 6.80064C14.6125 6.80064 14.4959 7.03176 14.3826 7.25633C14.3109 7.39961 14.2296 7.56128 14.0708 7.71967C13.9734 7.81736 13.9059 7.84395 13.8864 7.84614C13.8569 7.81845 13.8118 7.60633 14.0014 7.22761C14.0816 7.06868 14.172 6.83701 14.0606 6.64765C13.9298 6.4263 13.6203 6.41167 13.263 6.39868C13.1204 6.39164 12.9722 6.38617 12.8242 6.36724C12.5418 6.33196 12.4675 6.26032 12.4639 6.24514C12.4639 6.2381 12.4675 6.18923 12.5442 6.09489C14.8722 4.71087 17.5917 3.91502 20.5 3.91502C24.0264 3.91502 27.2732 5.08419 29.8853 7.0574C29.8446 7.22071 29.7125 7.45833 29.598 7.65856C29.4242 7.96399 29.5113 8.13817 29.5113 8.13817C29.5113 8.13817 30.3386 8.0074 30.5122 7.92065C30.5735 7.8903 30.6289 7.8002 30.6696 7.69116C30.7583 7.76602 30.8451 7.84142 30.93 7.92065C30.723 8.1083 30.5006 8.30524 30.4254 8.35624C30.2952 8.44251 29.8598 8.57376 29.6854 8.66003C29.5113 8.7474 30.2076 9.05235 30.2076 9.18251C30.2076 9.31328 30.2076 9.92257 29.9464 9.96537C29.6854 10.0093 28.4668 10.0093 28.4668 10.0093C28.4668 10.0093 28.0746 11.4021 28.1617 11.5328C28.2488 11.664 28.8147 11.969 29.1632 11.9256C29.5113 11.8806 30.2951 11.4905 30.2951 11.4905L30.643 10.7071L31.3393 9.96537C31.3393 9.96537 31.8617 10.1829 32.0361 10.0093C32.21 9.83569 32.5585 9.66212 32.5585 9.66212C32.5585 9.66212 32.9069 10.3142 33.1244 10.4016L33.1665 10.4206L33.1676 10.4233C33.4191 10.7695 33.6539 11.1259 33.8729 11.4938L33.8751 11.4965V11.4981L33.8783 11.5058C33.8903 11.5313 33.9028 11.5541 33.9185 11.5688C34.2752 12.1731 34.5942 12.8014 34.869 13.4519C34.5884 13.4335 34.2593 13.2453 33.9953 13.0576Z" />
</svg>
