<svg width="40" height="40" viewBox="0 0 40 40" fill="none" xmlns="http://www.w3.org/2000/svg">
<path d="M20 9.16769L19.0993 10.0345C19.105 10.0403 19.1106 10.0461 19.1163 10.0517L20 9.16769ZM11.6677 27.3681C11.1346 26.9295 10.3469 27.006 9.90816 27.539C9.46946 28.072 9.54595 28.8598 10.079 29.2985L11.6677 27.3681ZM3.9033 22.3525C4.23455 22.9581 4.9941 23.1806 5.59978 22.8493C6.20548 22.518 6.42793 21.7585 6.09666 21.1528L3.9033 22.3525ZM22.4496 13.3839C22.9378 13.8719 23.7293 13.8718 24.2173 13.3835C24.7055 12.8953 24.7053 12.1038 24.217 11.6158L22.4496 13.3839ZM4.58331 15.2285C4.58331 11.6437 6.60893 8.63751 9.37391 7.37362C12.0601 6.14577 15.6694 6.47094 19.0993 10.0345L20.9006 8.30086C16.8308 4.07251 12.1068 3.37562 8.33458 5.09991C4.64116 6.78817 2.08331 10.7084 2.08331 15.2285H4.58331ZM14.1623 32.4998C15.0161 33.1728 15.9326 33.8905 16.8613 34.4331C17.7898 34.9756 18.8493 35.4166 20 35.4166V32.9166C19.484 32.9166 18.8768 32.7155 18.1226 32.2746C17.3688 31.8341 16.5868 31.2276 15.7101 30.5365L14.1623 32.4998ZM25.8376 32.4998C28.2153 30.6253 31.2546 28.4776 33.6388 25.793C36.0658 23.0601 37.9166 19.671 37.9166 15.2285H35.4166C35.4166 18.8908 33.918 21.7136 31.7695 24.133C29.5781 26.6005 26.816 28.5451 24.29 30.5365L25.8376 32.4998ZM37.9166 15.2285C37.9166 10.7084 35.3588 6.78817 31.6653 5.09991C27.8931 3.37562 23.1691 4.07251 19.0993 8.30086L20.9006 10.0345C24.3305 6.47094 27.9398 6.14577 30.626 7.37362C33.391 8.63751 35.4166 11.6437 35.4166 15.2285H37.9166ZM24.29 30.5365C23.4131 31.2276 22.6311 31.8341 21.8773 32.2746C21.1231 32.7155 20.516 32.9166 20 32.9166V35.4166C21.1506 35.4166 22.2101 34.9756 23.1386 34.4331C24.0675 33.8905 24.9838 33.1728 25.8376 32.4998L24.29 30.5365ZM15.7101 30.5365C14.3835 29.4908 13.0355 28.4938 11.6677 27.3681L10.079 29.2985C11.4628 30.4373 12.9245 31.524 14.1623 32.4998L15.7101 30.5365ZM6.09666 21.1528C5.16131 19.4426 4.58331 17.5055 4.58331 15.2285H2.08331C2.08331 17.9576 2.78323 20.3045 3.9033 22.3525L6.09666 21.1528ZM19.1163 10.0517L22.4496 13.3839L24.217 11.6158L20.8836 8.28366L19.1163 10.0517Z" />
</svg>
