<svg width="40" height="40" viewBox="0 0 40 40" fill="none" xmlns="http://www.w3.org/2000/svg">
<path d="M14.96 31.2001C14.96 31.8628 15.4973 32.4001 16.16 32.4001C16.8227 32.4001 17.36 31.8628 17.36 31.2001H14.96ZM16.16 27.6305L14.9609 27.5846C14.9603 27.6 14.96 27.6152 14.96 27.6305H16.16ZM20 24.0625L19.9578 25.2617C19.9859 25.2627 20.0141 25.2627 20.0423 25.2617L20 24.0625ZM23.84 27.6305H25.04C25.04 27.6152 25.0397 27.6 25.0392 27.5846L23.84 27.6305ZM22.64 31.2001C22.64 31.8628 23.1773 32.4001 23.84 32.4001C24.5027 32.4001 25.04 31.8628 25.04 31.2001H22.64ZM16.16 30.0001C15.4973 30.0001 14.96 30.5374 14.96 31.2001C14.96 31.8628 15.4973 32.4001 16.16 32.4001V30.0001ZM23.84 32.4001C24.5027 32.4001 25.04 31.8628 25.04 31.2001C25.04 30.5374 24.5027 30.0001 23.84 30.0001V32.4001ZM16.16 32.4001C16.8227 32.4001 17.36 31.8628 17.36 31.2001C17.36 30.5374 16.8227 30.0001 16.16 30.0001V32.4001ZM15.2 31.2001V30.0001C15.1859 30.0001 15.1719 30.0003 15.1578 30.0008L15.2 31.2001ZM9.44003 25.8465H8.24003C8.24003 25.8616 8.24031 25.8768 8.24089 25.892L9.44003 25.8465ZM10.64 15.1169C10.64 14.4541 10.1028 13.9169 9.44003 13.9169C8.77729 13.9169 8.24003 14.4541 8.24003 15.1169H10.64ZM4.92611 16.7304C4.37774 17.1025 4.23494 17.8488 4.60713 18.3973C4.97934 18.9456 5.72559 19.0883 6.27395 18.7161L4.92611 16.7304ZM10.1139 16.1098C10.6623 15.7376 10.8051 14.9913 10.4329 14.443C10.0607 13.8946 9.31446 13.7518 8.76611 14.124L10.1139 16.1098ZM8.76611 14.124C8.21772 14.4962 8.07494 15.2424 8.4471 15.7908C8.81927 16.3391 9.56558 16.4819 10.1139 16.1098L8.76611 14.124ZM17.7856 9.45288L17.1346 8.44484C17.1269 8.4498 17.1192 8.45484 17.1117 8.45997L17.7856 9.45288ZM22.2144 9.45288L22.8883 8.45997C22.8808 8.45484 22.8731 8.4498 22.8655 8.44484L22.2144 9.45288ZM29.8861 16.1098C30.4346 16.482 31.1808 16.3391 31.553 15.7908C31.9251 15.2424 31.7823 14.4961 31.2339 14.124L29.8861 16.1098ZM23.84 30.0001C23.1773 30.0001 22.64 30.5374 22.64 31.2001C22.64 31.8628 23.1773 32.4001 23.84 32.4001V30.0001ZM24.8 31.2001L24.8423 30.0008C24.8282 30.0003 24.8141 30.0001 24.8 30.0001V31.2001ZM30.56 25.8465L31.7592 25.892C31.7597 25.8768 31.76 25.8616 31.76 25.8465H30.56ZM31.76 15.1169C31.76 14.4541 31.2227 13.9169 30.56 13.9169C29.8973 13.9169 29.36 14.4541 29.36 15.1169H31.76ZM33.7264 18.7147C34.2749 19.0869 35.0212 18.9438 35.3932 18.3953C35.7652 17.8469 35.6221 17.1006 35.0736 16.7286L33.7264 18.7147ZM31.2339 14.124C30.6855 13.7519 29.9391 13.8948 29.5669 14.4433C29.1949 14.9917 29.3376 15.7378 29.8861 16.1098L31.2339 14.124ZM17.36 31.2001V27.6305H14.96V31.2001H17.36ZM17.3592 27.6763C17.412 26.2929 18.5743 25.2129 19.9578 25.2617L20.0423 22.8632C17.3368 22.768 15.0642 24.8795 14.9609 27.5846L17.3592 27.6763ZM20.0423 25.2617C21.4258 25.2129 22.588 26.2929 22.6408 27.6763L25.0392 27.5846C24.9359 24.8795 22.6632 22.768 19.9578 22.8632L20.0423 25.2617ZM22.64 27.6305V31.2001H25.04V27.6305H22.64ZM16.16 32.4001H23.84V30.0001H16.16V32.4001ZM16.16 30.0001H15.2V32.4001H16.16V30.0001ZM15.1578 30.0008C12.7515 30.0856 10.7304 28.207 10.6392 25.8011L8.24089 25.892C8.38223 29.62 11.5138 32.5307 15.2423 32.3993L15.1578 30.0008ZM10.64 25.8465V15.1169H8.24003V25.8465H10.64ZM6.27395 18.7161L10.1139 16.1098L8.76611 14.124L4.92611 16.7304L6.27395 18.7161ZM10.1139 16.1098L18.4595 10.4458L17.1117 8.45997L8.76611 14.124L10.1139 16.1098ZM18.4367 10.4609C19.3883 9.84632 20.6117 9.84632 21.5634 10.4609L22.8655 8.44484C21.1213 7.31836 18.8787 7.31836 17.1346 8.44484L18.4367 10.4609ZM21.5405 10.4458L29.8861 16.1098L31.2339 14.124L22.8883 8.45997L21.5405 10.4458ZM23.84 32.4001H24.8V30.0001H23.84V32.4001ZM24.7578 32.3993C28.4863 32.5307 31.6178 29.62 31.7592 25.892L29.3608 25.8011C29.2696 28.207 27.2485 30.0856 24.8423 30.0008L24.7578 32.3993ZM31.76 25.8465V15.1169H29.36V25.8465H31.76ZM35.0736 16.7286L31.2339 14.124L29.8861 16.1098L33.7264 18.7147L35.0736 16.7286Z" />
</svg>
