<svg width="40" height="40" viewBox="0 0 40 40" fill="none" xmlns="http://www.w3.org/2000/svg">
<path d="M14.7001 5C14.7001 4.30965 14.1405 3.75 13.4501 3.75C12.7598 3.75 12.2001 4.30965 12.2001 5H14.7001ZM12.2001 9.18958C12.2001 9.87993 12.7598 10.4396 13.4501 10.4396C14.1405 10.4396 14.7001 9.87993 14.7001 9.18958H12.2001ZM27.7998 5C27.7998 4.30965 27.2402 3.75 26.5498 3.75C25.8595 3.75 25.2998 4.30965 25.2998 5H27.7998ZM25.2998 9.18958C25.2998 9.87993 25.8595 10.4396 26.5498 10.4396C27.2402 10.4396 27.7998 9.87993 27.7998 9.18958H25.2998ZM7.60721 25.1348C6.90873 22.0873 6.90873 18.9155 7.60721 15.868L5.17039 15.3095C4.38766 18.7245 4.38766 22.2783 5.17039 25.6933L7.60721 25.1348ZM32.3928 15.868C33.0913 18.9155 33.0913 22.0873 32.3928 25.1348L34.8297 25.6933C35.6123 22.2783 35.6123 18.7245 34.8297 15.3095L32.3928 15.868ZM24.5085 33.216C21.543 33.928 18.457 33.928 15.4916 33.216L14.908 35.647C18.2572 36.451 21.743 36.451 25.092 35.647L24.5085 33.216ZM15.4916 7.78678C18.457 7.07488 21.543 7.07488 24.5085 7.78678L25.092 5.35585C21.743 4.55185 18.257 4.55185 14.908 5.35585L15.4916 7.78678ZM15.4916 33.216C11.5935 32.2803 8.52949 29.1588 7.60721 25.1348L5.17039 25.6933C6.29911 30.618 10.0623 34.4837 14.908 35.647L15.4916 33.216ZM25.092 35.647C29.9377 34.4837 33.7008 30.618 34.8297 25.6933L32.3928 25.1348C31.4705 29.1588 28.4065 32.2803 24.5085 33.216L25.092 35.647ZM24.5085 7.78678C28.4065 8.72258 31.4705 11.844 32.3928 15.868L34.8297 15.3095C33.7008 10.3848 29.9377 6.51912 25.092 5.35585L24.5085 7.78678ZM14.908 5.35585C10.0623 6.51912 6.29911 10.3848 5.17039 15.3095L7.60721 15.868C8.52949 11.844 11.5935 8.72258 15.4916 7.78678L14.908 5.35585ZM12.2001 5V9.18958H14.7001V5H12.2001ZM25.2998 5V9.18958H27.7998V5H25.2998Z" />
<path d="M13.3135 17.1462C12.7894 16.6968 12.0002 16.7577 11.551 17.2817C11.1017 17.8058 11.1624 18.595 11.6865 19.0443L13.3135 17.1462ZM14.1667 19.5238L13.3532 20.4728C13.8213 20.8742 14.5121 20.8742 14.9802 20.4728L14.1667 19.5238ZM18.3135 17.6157C18.8377 17.1665 18.8984 16.3773 18.449 15.8532C17.9999 15.329 17.2107 15.2683 16.6865 15.7176L18.3135 17.6157ZM13.3135 24.289C12.7894 23.8397 12.0002 23.9005 11.551 24.4247C11.1017 24.9488 11.1624 25.7378 11.6865 26.1872L13.3135 24.289ZM14.1667 26.6667L13.3532 27.6157C13.8213 28.017 14.5121 28.017 14.9802 27.6157L14.1667 26.6667ZM18.3135 24.7587C18.8377 24.3093 18.8984 23.5202 18.449 22.996C17.9999 22.4718 17.2107 22.4112 16.6865 22.8605L18.3135 24.7587ZM21.6667 17.5595C20.9764 17.5595 20.4167 18.1192 20.4167 18.8095C20.4167 19.4998 20.9764 20.0595 21.6667 20.0595V17.5595ZM27.5 20.0595C28.1904 20.0595 28.75 19.4998 28.75 18.8095C28.75 18.1192 28.1904 17.5595 27.5 17.5595V20.0595ZM21.6667 24.7023C20.9764 24.7023 20.4167 25.262 20.4167 25.9523C20.4167 26.6427 20.9764 27.2023 21.6667 27.2023V24.7023ZM27.5 27.2023C28.1904 27.2023 28.75 26.6427 28.75 25.9523C28.75 25.262 28.1904 24.7023 27.5 24.7023V27.2023ZM11.6865 19.0443L13.3532 20.4728L14.9802 18.5747L13.3135 17.1462L11.6865 19.0443ZM14.9802 20.4728L18.3135 17.6157L16.6865 15.7176L13.3532 18.5747L14.9802 20.4728ZM11.6865 26.1872L13.3532 27.6157L14.9802 25.7177L13.3135 24.289L11.6865 26.1872ZM14.9802 27.6157L18.3135 24.7587L16.6865 22.8605L13.3532 25.7177L14.9802 27.6157ZM21.6667 20.0595H27.5V17.5595H21.6667V20.0595ZM21.6667 27.2023H27.5V24.7023H21.6667V27.2023Z"/>
</svg>
