<svg width="40" height="40" viewBox="0 0 40 40" fill="none" xmlns="http://www.w3.org/2000/svg">
<path d="M5.71429 7.5C5.71429 4.93583 7.79297 2.85715 10.3572 2.85715H29.6429C32.207 2.85715 34.2857 4.93582 34.2857 7.5V24.8267C34.1137 24.9417 33.9504 25.0753 33.7986 25.2271L32.1429 26.8829V7.5C32.1429 6.11929 31.0236 5 29.6429 5H10.3572C8.97644 5 7.85715 6.11929 7.85715 7.5V32.4996C7.85715 33.8803 8.97644 34.9996 10.3572 34.9996H21.8824L24.0253 37.1424H10.3572C7.79297 37.1424 5.71429 35.0637 5.71429 32.4996V7.5Z" fill="#0860FB"/>
<path d="M15 12.5C15 13.4862 14.2005 14.2857 13.2143 14.2857C12.2281 14.2857 11.4286 13.4862 11.4286 12.5C11.4286 11.5138 12.2281 10.7143 13.2143 10.7143C14.2005 10.7143 15 11.5138 15 12.5Z" fill="#0860FB"/>
<path d="M13.2143 21.7854C14.2005 21.7854 15 20.986 15 19.9997C15 19.0136 14.2005 18.214 13.2143 18.214C12.2281 18.214 11.4286 19.0136 11.4286 19.9997C11.4286 20.986 12.2281 21.7854 13.2143 21.7854Z" fill="#0860FB"/>
<path d="M13.2143 29.2857C14.2005 29.2857 15 28.4863 15 27.5C15 26.5137 14.2005 25.7143 13.2143 25.7143C12.2281 25.7143 11.4286 26.5137 11.4286 27.5C11.4286 28.4863 12.2281 29.2857 13.2143 29.2857Z" fill="#0860FB"/>
<path d="M18.2143 11.4286C17.6226 11.4286 17.1429 11.9083 17.1429 12.5C17.1429 13.0917 17.6226 13.5714 18.2143 13.5714H27.5C28.0917 13.5714 28.5714 13.0917 28.5714 12.5C28.5714 11.9083 28.0917 11.4286 27.5 11.4286H18.2143Z" fill="#0860FB"/>
<path d="M17.1429 19.9997C17.1429 19.408 17.6226 18.9283 18.2143 18.9283H27.5C28.0917 18.9283 28.5714 19.408 28.5714 19.9997C28.5714 20.5914 28.0917 21.0711 27.5 21.0711H18.2143C17.6226 21.0711 17.1429 20.5914 17.1429 19.9997Z" fill="#0860FB"/>
<path d="M18.2143 26.4286C17.6226 26.4286 17.1429 26.9083 17.1429 27.5C17.1429 28.0917 17.6226 28.5714 18.2143 28.5714H27.5C28.0917 28.5714 28.5714 28.0917 28.5714 27.5C28.5714 26.9083 28.0917 26.4286 27.5 26.4286H18.2143Z" fill="#0860FB"/>
<path d="M36.829 28.2576L28.2576 36.829C28.0567 37.03 27.7842 37.1429 27.5 37.1429C27.2159 37.1429 26.9433 37.03 26.7425 36.829L22.4595 32.5462C22.041 32.1277 22.041 31.4493 22.4595 31.0309C22.8779 30.6124 23.5563 30.6124 23.9747 31.0309L27.5 34.5562L35.3139 26.7424C35.7323 26.324 36.4106 26.324 36.829 26.7424C37.2475 27.1609 37.2475 27.8392 36.829 28.2576Z" fill="#0860FB"/>
</svg>
