<svg width="40" height="40" viewBox="0 0 40 40" fill="none" xmlns="http://www.w3.org/2000/svg">
<path d="M26.4562 23.0537C26.762 22.7097 26.731 22.183 26.387 21.8772C26.043 21.5713 25.5163 21.6023 25.2105 21.9463L26.4562 23.0537ZM19.1667 30L19.756 30.5892L19.7732 30.5718L19.7895 30.5537L19.1667 30ZM17.3033 30.9213V31.7547H17.3388L17.3742 31.7515L17.3033 30.9213ZM18.9897 22.9687C19.2485 22.5882 19.15 22.0698 18.7693 21.811C18.3888 21.5522 17.8705 21.6508 17.6117 22.0313L18.9897 22.9687ZM33.5093 21.382L34.7153 23.794L36.206 23.0487L35 20.6365L33.5093 21.382ZM8.996 23.8675L4.6905 22.1453L4.07152 23.6928L8.377 25.415L8.996 23.8675ZM4.16667 21.3715V19.1667H2.5V21.3715H4.16667ZM4.16667 19.1667V13.3333H2.5V19.1667H4.16667ZM5 12.5H6.59362V10.8333H5V12.5ZM7.3627 13.0124L9.63663 18.4627L11.1748 17.8208L8.90087 12.3707L7.3627 13.0124ZM11.9439 20H31.2732V18.3333H11.9439V20ZM25.2105 21.9463L18.5438 29.4463L19.7895 30.5537L26.4562 23.0537L25.2105 21.9463ZM17.3033 30.088H15.6457V31.7547H17.3033V30.088ZM14.8836 29.0052L18.9897 22.9687L17.6117 22.0313L13.5055 28.0678L14.8836 29.0052ZM15.6457 30.088C15.1179 30.088 14.7312 29.6057 14.8254 29.1053L13.1875 28.797C12.9035 30.3052 14.0554 31.7547 15.6457 31.7547V30.088ZM18.5773 29.4107C18.1152 29.8728 18.019 29.9538 17.9393 29.9932C17.8798 30.0225 17.8082 30.0418 17.2323 30.091L17.3742 31.7515C17.8285 31.7128 18.2718 31.688 18.6782 31.4872C19.0643 31.2962 19.3848 30.9603 19.756 30.5892L18.5773 29.4107ZM33.97 25H22.5V26.6667H33.97V25ZM16.0333 25H14.8764V26.6667H16.0333V25ZM25.674 18.6765L19.5065 10.1962L18.1585 11.1765L24.326 19.6568L25.674 18.6765ZM17.4847 9.16663H16.1409V10.8333H17.4847V9.16663ZM13.9462 12.8638L17.6018 19.5657L19.0648 18.7677L15.4093 12.0657L13.9462 12.8638ZM16.1409 9.16663C14.2432 9.16663 13.0375 11.1978 13.9462 12.8638L15.4093 12.0657C15.1064 11.5104 15.5083 10.8333 16.1409 10.8333V9.16663ZM19.5065 10.1962C19.036 9.54933 18.2845 9.16663 17.4847 9.16663V10.8333C17.7512 10.8333 18.0018 10.9609 18.1585 11.1765L19.5065 10.1962ZM9.63663 18.4627C10.0251 19.3937 10.9351 20 11.9439 20V18.3333C11.6076 18.3333 11.3043 18.1312 11.1748 17.8208L9.63663 18.4627ZM6.59362 12.5C6.9299 12.5 7.23322 12.7021 7.3627 13.0124L8.90087 12.3707C8.51242 11.4396 7.60245 10.8333 6.59362 10.8333V12.5ZM4.6905 22.1453C4.37412 22.0188 4.16667 21.7123 4.16667 21.3715H2.5C2.5 22.3938 3.12237 23.3132 4.07152 23.6928L4.6905 22.1453ZM8.377 25.415C10.4441 26.2418 12.65 26.6667 14.8764 26.6667V25C12.8621 25 10.8663 24.6157 8.996 23.8675L8.377 25.415ZM13.5055 28.0678C13.3912 28.2358 13.2464 28.4838 13.1875 28.797L14.8254 29.1053C14.8238 29.1135 14.8232 29.1098 14.8318 29.0918C14.8407 29.073 14.8564 29.0452 14.8836 29.0052L13.5055 28.0678ZM34.7153 23.794C34.9923 24.348 34.5895 25 33.97 25V26.6667C35.8283 26.6667 37.0372 24.7108 36.206 23.0487L34.7153 23.794ZM4.16667 13.3333C4.16667 12.873 4.53977 12.5 5 12.5V10.8333C3.61928 10.8333 2.5 11.9526 2.5 13.3333H4.16667ZM35 20.6365C34.2942 19.225 32.8515 18.3333 31.2732 18.3333V20C32.2202 20 33.0858 20.535 33.5093 21.382L35 20.6365Z" />
</svg>
