<svg width="40" height="40" viewBox="0 0 40 40" fill="none" xmlns="http://www.w3.org/2000/svg">
<g id="Frame">
<g id="SVGRepo_iconCarrier">
<path id="Vector" d="M8.39266 15.0676C8.31951 14.4089 7.72623 13.9342 7.06754 14.0073C6.40884 14.0805 5.93416 14.6738 6.00732 15.3325L8.39266 15.0676ZM33.9926 15.3323C34.0657 14.6736 33.591 14.0804 32.9323 14.0073C32.2736 13.9342 31.6803 14.409 31.6073 15.0677L33.9926 15.3323ZM3.99999 14C3.33725 14 2.79999 14.5373 2.79999 15.2C2.79999 15.8627 3.33725 16.4 3.99999 16.4V14ZM36 16.4C36.6627 16.4 37.2 15.8627 37.2 15.2C37.2 14.5373 36.6627 14 36 14V16.4ZM7.72668 14.6634C7.43029 15.2561 7.67056 15.9769 8.26333 16.2733C8.8561 16.5697 9.57692 16.3294 9.8733 15.7367L7.72668 14.6634ZM13.0733 9.33666C13.3697 8.7439 13.1294 8.02308 12.5366 7.72669C11.9439 7.43031 11.2231 7.67058 10.9267 8.26335L13.0733 9.33666ZM30.1267 15.7367C30.423 16.3294 31.1438 16.5697 31.7366 16.2733C32.3294 15.9769 32.5697 15.2561 32.2733 14.6634L30.1267 15.7367ZM29.0733 8.26335C28.7769 7.67058 28.0561 7.43031 27.4633 7.72669C26.8705 8.02308 26.6302 8.7439 26.9267 9.33666L29.0733 8.26335ZM14 24.8C14 25.4627 14.5373 26 15.2 26C15.8627 26 16.4 25.4627 16.4 24.8H14ZM16.4 21.6C16.4 20.9373 15.8627 20.4 15.2 20.4C14.5373 20.4 14 20.9373 14 21.6H16.4ZM18.8 24.8C18.8 25.4627 19.3373 26 20 26C20.6627 26 21.2 25.4627 21.2 24.8H18.8ZM21.2 21.6C21.2 20.9373 20.6627 20.4 20 20.4C19.3373 20.4 18.8 20.9373 18.8 21.6H21.2ZM23.6 24.8C23.6 25.4627 24.1373 26 24.8 26C25.4627 26 26 25.4627 26 24.8H23.6ZM26 21.6C26 20.9373 25.4627 20.4 24.8 20.4C24.1373 20.4 23.6 20.9373 23.6 21.6H26ZM6.00732 15.3325L7.46812 28.4861L9.85346 28.2211L8.39266 15.0676L6.00732 15.3325ZM7.46812 28.4861C7.71578 30.7136 9.59826 32.3992 11.8395 32.4L11.8404 30C10.8217 29.9997 9.96604 29.2338 9.85346 28.2211L7.46812 28.4861ZM11.8395 32.4H28.16L28.1601 30H11.8404L11.8395 32.4ZM28.16 32.4C30.4021 32.4003 32.2857 30.7146 32.5334 28.4862L30.1481 28.221C30.0355 29.2339 29.1793 30.0002 28.1601 30L28.16 32.4ZM32.5334 28.4862L33.9926 15.3323L31.6073 15.0677L30.1481 28.221L32.5334 28.4862ZM3.99999 16.4H36V14H3.99999V16.4ZM9.8733 15.7367L13.0733 9.33666L10.9267 8.26335L7.72668 14.6634L9.8733 15.7367ZM32.2733 14.6634L29.0733 8.26335L26.9267 9.33666L30.1267 15.7367L32.2733 14.6634ZM16.4 24.8V21.6H14V24.8H16.4ZM21.2 24.8V21.6H18.8V24.8H21.2ZM26 24.8V21.6H23.6V24.8H26Z"/>
</g>
</g>
</svg>
